<?xml version="1.0" encoding="UTF-8"?>
<svg version="1.1" xmlns="http://www.w3.org/2000/svg" width="669" height="674">
<path d="M0 0 C220.77 0 441.54 0 669 0 C669 222.42 669 444.84 669 674 C448.23 674 227.46 674 0 674 C0 451.58 0 229.16 0 0 Z " fill="#FCFCFB" transform="translate(0,0)"/>
<path d="M0 0 C0.825 0.495 1.65 0.99 2.5 1.5 C2.66374356 2.8918203 2.77920565 4.28935868 2.875 5.6875 C2.97941406 6.85345703 2.97941406 6.85345703 3.0859375 8.04296875 C2.16706896 11.89609081 -0.36594178 13.18441631 -3.5 15.5 C-2.92668945 15.62528076 -2.35337891 15.75056152 -1.76269531 15.87963867 C19.74385945 20.63514943 19.74385945 20.63514943 29.5 25.5 C30.07911133 25.78746094 30.65822266 26.07492188 31.25488281 26.37109375 C39.16484414 30.33635777 46.6295818 34.70852077 53.9140625 39.73828125 C56.47281929 41.52904239 56.47281929 41.52904239 59.171875 43.0390625 C61.35656846 44.4099943 62.5943891 45.52689162 64.125 47.5625 C66.35396953 50.61806718 66.35396953 50.61806718 69.5 52.5 C69.5 53.16 69.5 53.82 69.5 54.5 C70.16 54.5 70.82 54.5 71.5 54.5 C76.5 59.97619048 76.5 59.97619048 76.5 62.5 C77.49 62.83 78.48 63.16 79.5 63.5 C80.72680664 64.91113281 80.72680664 64.91113281 81.91015625 66.703125 C82.34263672 67.35410156 82.77511719 68.00507813 83.22070312 68.67578125 C83.66349609 69.36027344 84.10628906 70.04476562 84.5625 70.75 C85.00916016 71.41902344 85.45582031 72.08804688 85.91601562 72.77734375 C88.21028992 76.26848161 90.03872778 79.56991169 91.5 83.5 C92.78076813 85.80150152 94.12209705 88.05765896 95.4765625 90.31640625 C96.5 92.5 96.5 92.5 96.5 96.5 C97.16 96.5 97.82 96.5 98.5 96.5 C98.83 98.48 99.16 100.46 99.5 102.5 C100.53125 102.561875 101.5625 102.62375 102.625 102.6875 C113.38988131 104.08330166 122.48599461 108.33110791 130.5 115.5 C131.33273437 116.13421875 132.16546875 116.7684375 133.0234375 117.421875 C141.17890112 123.93644954 146.12420604 132.59689348 148.16796875 142.8515625 C149.44794707 156.9162655 148.83934023 169.3373656 143.5 182.5 C142.84 182.5 142.18 182.5 141.5 182.5 C140.84 184.48 140.18 186.46 139.5 188.5 C138.84 188.5 138.18 188.5 137.5 188.5 C137.314375 189.20125 137.12875 189.9025 136.9375 190.625 C135.23153913 194.03692175 133.19556448 195.7195273 130.25390625 198.0703125 C128.48698578 199.45315935 128.48698578 199.45315935 127.01953125 201.03125 C123.99769597 203.95209849 120.22354498 205.62455811 116.5 207.5 C115.65308594 207.97308594 114.80617188 208.44617188 113.93359375 208.93359375 C105.77829415 212.85035669 99.09346393 212.5191184 90.1875 212.125 C81.62822203 211.3829072 81.62822203 211.3829072 74.18359375 214.75390625 C72.18137431 217.60716393 70.85595755 220.30011291 69.5 223.5 C67.4609375 226.36328125 67.4609375 226.36328125 65.5 228.5 C64.84 228.5 64.18 228.5 63.5 228.5 C63.5 229.16 63.5 229.82 63.5 230.5 C62.84 230.5 62.18 230.5 61.5 230.5 C61.5 231.49 61.5 232.48 61.5 233.5 C62.06203125 233.7371875 62.6240625 233.974375 63.203125 234.21875 C66.01894042 235.78947697 67.97955416 237.71471464 70.25 240 C71.04921875 240.7940625 71.8484375 241.588125 72.671875 242.40625 C74.5 244.5 74.5 244.5 74.5 246.5 C75.16 246.5 75.82 246.5 76.5 246.5 C80.5 251.91176471 80.5 251.91176471 80.5 254.5 C81.16 254.5 81.82 254.5 82.5 254.5 C84.0078125 256.6171875 84.0078125 256.6171875 85.625 259.375 C86.16382813 260.27992188 86.70265625 261.18484375 87.2578125 262.1171875 C88.5 264.5 88.5 264.5 88.5 266.5 C89.16 266.5 89.82 266.5 90.5 266.5 C97.97681102 279.49217292 104.79818744 293.51046769 107.171875 308.44921875 C107.50334298 310.52089365 108.00436701 312.47876125 108.5625 314.5 C110.6414123 322.65431693 110.68163974 331.13154951 110.6875 339.5 C110.69974609 340.42039062 110.71199219 341.34078125 110.72460938 342.2890625 C110.73790698 348.58326295 109.96426559 354.38078018 108.5 360.5 C109.17804688 359.99210937 109.85609375 359.48421875 110.5546875 358.9609375 C113.51311207 356.77285063 116.49798661 354.6278639 119.5 352.5 C120.31339844 351.91863281 121.12679688 351.33726562 121.96484375 350.73828125 C131.16799346 344.658996 142.9701781 341.95039242 153.88671875 343.93359375 C163.24891797 346.24188483 170.27921122 351.78441343 175.28125 359.99609375 C181.73148604 373.248021 180.46488125 387.29288358 176.1796875 400.9296875 C172.15255281 412.55760761 164.99423489 422.85155184 157.5 432.5 C156.48292969 433.82257813 156.48292969 433.82257813 155.4453125 435.171875 C153.80746602 437.28989334 152.1598698 439.39922729 150.5 441.5 C151.45261719 441.46519531 152.40523437 441.43039062 153.38671875 441.39453125 C154.64097656 441.36746094 155.89523437 441.34039063 157.1875 441.3125 C158.42886719 441.27769531 159.67023438 441.24289062 160.94921875 441.20703125 C165.70179198 441.59915775 168.18203836 443.18203836 171.5 446.5 C172.60978564 451.25622418 173.03869188 453.35797321 170.9375 457.8125 C167.58220754 461.51192502 164.39556561 463.27030163 159.40619695 463.87489682 C157.74057854 463.8748143 157.74057854 463.8748143 156.04131126 463.87473011 C154.75342559 463.88193665 153.46553992 463.8891432 152.13862741 463.89656812 C150.71663359 463.88939166 149.29464117 463.88193277 147.87265015 463.8742218 C146.35651801 463.87696292 144.84038778 463.88101545 143.32426226 463.88626546 C139.16108858 463.89685335 134.99812956 463.88872269 130.83496523 463.87751496 C126.34414519 463.86867556 121.85335332 463.87711566 117.36253357 463.88337708 C108.5667868 463.89286816 99.77112204 463.88626276 90.97538136 463.87411413 C80.73688947 463.86049897 70.49841716 463.86213153 60.25991853 463.86424746 C41.99585331 463.86743772 23.73182709 463.8557669 5.46777344 463.83618164 C-12.26433499 463.81717175 -29.99639773 463.81009551 -47.72851562 463.81567383 C-67.0298755 463.82172784 -86.33121528 463.82156192 -105.63257349 463.810188 C-107.68949087 463.80898068 -109.74640826 463.80777469 -111.80332565 463.80657005 C-112.81542135 463.80596651 -113.82751704 463.80536298 -114.8702823 463.80474115 C-122.01137973 463.80085772 -129.15246968 463.80125724 -136.29356766 463.8031559 C-144.99152458 463.80527516 -153.68944143 463.80007403 -162.38738705 463.78554235 C-166.82732633 463.77828527 -171.26720717 463.77423252 -175.70715141 463.77878571 C-179.7682292 463.78284916 -183.82918608 463.77773376 -187.89024548 463.76515963 C-189.36253389 463.76222132 -190.83483364 463.76267971 -192.30711921 463.76680271 C-194.30240841 463.77188477 -196.29771849 463.76354794 -198.29299355 463.75447559 C-199.40308112 463.75360882 -200.51316869 463.75274204 -201.65689528 463.751849 C-205.9882263 463.36816937 -208.71731312 461.81272248 -211.5 458.5 C-212.38434888 455.84695337 -212.78215314 453.88358368 -212.9375 451.125 C-212.99808594 450.37476563 -213.05867187 449.62453125 -213.12109375 448.8515625 C-212.32931976 445.85377668 -210.7840129 444.36266019 -208.34692383 442.50390625 C-205.06368428 440.71928219 -201.79646148 440.71737627 -198.125 440.6875 C-197.02091797 440.64979492 -197.02091797 440.64979492 -195.89453125 440.61132812 C-194.09691851 440.55296407 -192.2984065 440.52349462 -190.5 440.5 C-191.0053125 439.94570313 -191.510625 439.39140625 -192.03125 438.8203125 C-192.6809375 438.09585937 -193.330625 437.37140625 -194 436.625 C-194.97453125 435.54605469 -194.97453125 435.54605469 -195.96875 434.4453125 C-197.5 432.5 -197.5 432.5 -197.5 430.5 C-198.16 430.5 -198.82 430.5 -199.5 430.5 C-200.72029573 428.62986004 -201.85204064 426.70149253 -202.9375 424.75 C-205.25005769 420.54502981 -205.25005769 420.54502981 -207.97265625 416.609375 C-216.30200187 405.10593093 -221.39153879 388.51678741 -219.5 374.5 C-217.93195631 366.57681625 -215.98675297 359.56430591 -210.5 353.5 C-209.84 353.5 -209.18 353.5 -208.5 353.5 C-208.17 352.51 -207.84 351.52 -207.5 350.5 C-205.64453125 349.1484375 -205.64453125 349.1484375 -203.3125 347.875 C-202.55582031 347.44960938 -201.79914063 347.02421875 -201.01953125 346.5859375 C-195.75395593 344.31643372 -190.28231454 344.30714269 -184.625 344.3125 C-183.92117187 344.31185547 -183.21734375 344.31121094 -182.4921875 344.31054688 C-177.4937953 344.36145643 -173.22532614 344.92489129 -168.5 346.5 C-168.5 347.16 -168.5 347.82 -168.5 348.5 C-167.66210938 348.73460937 -166.82421875 348.96921875 -165.9609375 349.2109375 C-161.93311406 350.71114262 -158.68153987 352.74902347 -155.125 355.125 C-154.48433594 355.54523438 -153.84367187 355.96546875 -153.18359375 356.3984375 C-151.61844302 357.42629768 -150.05865686 358.46231886 -148.5 359.5 C-148.66081055 358.62867432 -148.82162109 357.75734863 -148.98730469 356.85961914 C-152.47742772 333.98934153 -149.14307283 309.7929798 -140.5 288.5 C-140.07460937 287.40042969 -139.64921875 286.30085938 -139.2109375 285.16796875 C-131.08297586 264.74318773 -117.9802304 247.8727288 -102.5 232.5 C-104.14489352 228.63403556 -106.73062634 225.65606626 -109.4375 222.5 C-117.5 213.01746725 -117.5 213.01746725 -117.5 210.5 C-118.46486328 210.7165625 -118.46486328 210.7165625 -119.44921875 210.9375 C-136.40246227 214.42004931 -149.74022968 212.17115128 -164.5 203.5 C-173.68904223 196.9634648 -180.02642481 187.75274314 -184.5 177.5 C-184.87253906 176.74976563 -185.24507812 175.99953125 -185.62890625 175.2265625 C-191.47503408 161.9862033 -189.55044436 145.69331465 -184.5 132.5 C-181.68976171 126.64084565 -178.39748095 121.8144475 -173.5 117.5 C-172.63955078 116.67048828 -172.63955078 116.67048828 -171.76171875 115.82421875 C-162.11884833 106.7997288 -151.45705697 103.37609994 -138.5 102.5 C-138.355625 101.200625 -138.21125 99.90125 -138.0625 98.5625 C-134.46693743 80.61018757 -120.75882996 65.33318217 -108.5 52.5 C-107.41138672 51.34951172 -107.41138672 51.34951172 -106.30078125 50.17578125 C-90.89698387 34.28777806 -66.84609609 20.16343491 -44.5 17.6875 C-38.87264661 16.87021418 -36.31881666 13.85111344 -32.60546875 9.75 C-24.8639018 1.47700823 -10.89069373 -4.66744017 0 0 Z " fill="#030303" transform="translate(360.5,73.5)"/>
<path d="M0 0 C0.70578772 -0.00679667 1.41157544 -0.01359334 2.13875067 -0.02059597 C4.49781281 -0.03954852 6.8563549 -0.0371325 9.21548462 -0.03465271 C10.90928311 -0.04363146 12.60307545 -0.05383997 14.29685974 -0.06518555 C18.89402735 -0.09167739 23.49102743 -0.09871864 28.08826399 -0.10063291 C30.96132237 -0.10276594 33.83433821 -0.10917174 36.70738602 -0.11712456 C46.73306227 -0.14487491 56.75861889 -0.15713042 66.78433228 -0.1547699 C76.12588667 -0.15296747 85.46692137 -0.18462638 94.80834424 -0.23200089 C102.8322921 -0.271242 110.85607018 -0.287321 118.88011324 -0.28540367 C123.67089588 -0.28463915 128.46121658 -0.29316767 133.25190353 -0.32493782 C137.75834114 -0.35400746 142.26387604 -0.35420246 146.77034569 -0.33238792 C148.42190687 -0.32925356 150.0735245 -0.33632093 151.72498894 -0.3544693 C165.75289374 -0.498612 165.75289374 -0.498612 170.35284424 3.32168579 C177.30241891 11.79648495 174.43713246 26.97210214 173.41519165 37.42848206 C172.52233864 45.95983818 171.48052636 54.47399921 170.45474243 62.99014282 C170.34178833 63.92885727 170.22883423 64.86757172 170.11245728 65.83473206 C169.94495972 67.22497841 169.94495972 67.22497841 169.77407837 68.64331055 C168.91506558 75.86657324 168.25653279 83.081245 167.75308228 90.33863831 C166.75840895 104.05092054 165.29277182 117.72580604 163.87808228 131.40113831 C108.43808228 131.40113831 52.99808228 131.40113831 -4.12191772 131.40113831 C-6.38944532 111.56027181 -8.59732181 91.82639539 -10.39926147 71.95582581 C-11.06616166 64.77678751 -11.88606525 57.62164238 -12.74691772 50.46363831 C-13.9020019 40.77384705 -14.78340925 31.15633704 -15.12191772 21.40113831 C-15.17476929 20.16492737 -15.22762085 18.92871643 -15.28207397 17.65504456 C-15.31172241 16.49875549 -15.34137085 15.34246643 -15.37191772 14.15113831 C-15.39769897 13.15598206 -15.42348022 12.16082581 -15.45004272 11.13551331 C-15.04949233 7.79759338 -14.1728693 6.05845818 -12.12191772 3.40113831 C-8.05264864 0.35848465 -5.02584742 0.02002091 0 0 Z " fill="#FCFCFC" transform="translate(261.1219177246094,383.59886169433594)"/>
<path d="M0 0 C4.95 0 9.9 0 15 0 C15.04898438 1.14597656 15.09796875 2.29195312 15.1484375 3.47265625 C15.22352801 5.00262535 15.29907306 6.53257218 15.375 8.0625 C15.4059375 8.81466797 15.436875 9.56683594 15.46875 10.34179688 C15.7192038 15.16303247 16.50354571 19.37459582 18 24 C18.66666667 26.33333333 19.33333333 28.66666667 20 31 C20.66 31 21.32 31 22 31 C26 36.41176471 26 36.41176471 26 39 C26.55558594 39.27714844 27.11117187 39.55429688 27.68359375 39.83984375 C29.2820211 40.64040517 30.87824901 41.44536798 32.47265625 42.25390625 C33.32730469 42.68574219 34.18195313 43.11757812 35.0625 43.5625 C35.91972656 43.99691406 36.77695312 44.43132812 37.66015625 44.87890625 C40.06506992 46.09098879 40.06506992 46.09098879 43 47 C43 47.66 43 48.32 43 49 C44.84464844 48.91298828 44.84464844 48.91298828 46.7265625 48.82421875 C48.35933688 48.77729995 49.99215252 48.73180206 51.625 48.6875 C52.43324219 48.64560547 53.24148438 48.60371094 54.07421875 48.56054688 C58.22023178 48.47627832 61.11279507 48.60687809 64.4609375 51.20703125 C68.65444923 55.81989415 69.27897395 59.28777854 69.25 65.4375 C69.25773437 67.07525391 69.25773437 67.07525391 69.265625 68.74609375 C68.4726248 78.46034621 61.90834993 87.38140426 55 94 C51.77256304 96.50503159 48.43992068 98.79757852 45 101 C44.19949219 101.51949219 43.39898437 102.03898437 42.57421875 102.57421875 C26.31937541 111.57728069 4.03021259 112.55980588 -13.63012695 107.69799805 C-27.18472033 103.6735735 -41.80458852 95.6639242 -49 83 C-49 82.34 -49 81.68 -49 81 C-49.66 81 -50.32 81 -51 81 C-54.95680512 70.40141487 -56.54435389 63.60349242 -52 53 C-51.34 53 -50.68 53 -50 53 C-49.67 52.01 -49.34 51.02 -49 50 C-45.92903883 47.95269255 -45.40647599 47.76796892 -41.97265625 47.83203125 C-32.07379458 47.79859257 -25.45462404 47.28323723 -17.15234375 41.49609375 C-15 40 -15 40 -13 40 C-13 39.34 -13 38.68 -13 38 C-11.33333333 36.33333333 -9.66666667 34.66666667 -8 33 C-3.73181553 27.70114598 -0.84225242 22.88119063 -0.5859375 15.91796875 C-0.54726563 14.98662109 -0.50859375 14.05527344 -0.46875 13.09570312 C-0.4378125 12.13599609 -0.406875 11.17628906 -0.375 10.1875 C-0.33632813 9.20845703 -0.29765625 8.22941406 -0.2578125 7.22070312 C-0.16389629 4.8141002 -0.08087436 2.40707649 0 0 Z " fill="#F9F9F9" transform="translate(333,211)"/>
<path d="M0 0 C1.30384644 0.00132935 1.30384644 0.00132935 2.6340332 0.00268555 C8.71058584 0.11148141 14.45585872 0.81707415 20.375 2.1875 C21.46131714 2.4352417 21.46131714 2.4352417 22.56958008 2.68798828 C24.57421875 3.20703125 24.57421875 3.20703125 27.6875 4.375 C28.1825 5.86 28.1825 5.86 28.6875 7.375 C29.739375 7.7771875 29.739375 7.7771875 30.8125 8.1875 C36.34180164 10.47134198 40.58429321 15.10766493 44.6875 19.375 C44.89503906 18.65441406 45.10257812 17.93382812 45.31640625 17.19140625 C47.0597554 13.61033863 49.51485875 11.65506274 52.625 9.3125 C53.40327148 8.68118164 53.40327148 8.68118164 54.19726562 8.03710938 C62.8074069 1.4336122 72.1132314 -0.2883285 82.75 -0.125 C84.2669043 -0.14820313 84.2669043 -0.14820313 85.81445312 -0.171875 C98.61705538 -0.1059247 109.4364534 5.74068984 118.6875 14.375 C123.6875 20.4567942 123.6875 20.4567942 123.6875 23.375 C122.75908043 23.38713028 122.75908043 23.38713028 121.81190491 23.39950562 C115.33851445 23.48592282 108.86541719 23.58544041 102.39233398 23.69238281 C99.98027492 23.73053858 97.56816154 23.76541424 95.15600586 23.796875 C91.67802595 23.84281736 88.20041558 23.90076329 84.72265625 23.9609375 C83.11898949 23.97826431 83.11898949 23.97826431 81.48292542 23.99594116 C69.44002104 24.10823902 69.44002104 24.10823902 59.25 29.75 C58.61191406 30.33523437 57.97382813 30.92046875 57.31640625 31.5234375 C55.37898868 33.5669955 55.37898868 33.5669955 53.6875 37.375 C46.7575 37.375 39.8275 37.375 32.6875 37.375 C32.6875 36.715 32.6875 36.055 32.6875 35.375 C32.0275 35.375 31.3675 35.375 30.6875 35.375 C29.81367828 34.32405226 28.98806977 33.23276514 28.1875 32.125 C23.87584453 26.98794946 18.38380356 24.86173873 11.78875732 23.99328613 C8.63219658 23.82110427 5.49713776 23.76920198 2.3359375 23.765625 C1.19589264 23.74908875 0.05584778 23.73255249 -1.1187439 23.71551514 C-4.72505224 23.66731015 -8.33093973 23.64572459 -11.9375 23.625 C-14.39715628 23.59681745 -16.85679319 23.56688686 -19.31640625 23.53515625 C-25.31502845 23.46155859 -31.31353364 23.40975547 -37.3125 23.375 C-36.9825 22.055 -36.6525 20.735 -36.3125 19.375 C-35.6525 19.375 -34.9925 19.375 -34.3125 19.375 C-33.6525 17.725 -32.9925 16.075 -32.3125 14.375 C-31.6525 14.375 -30.9925 14.375 -30.3125 14.375 C-29.9825 13.385 -29.6525 12.395 -29.3125 11.375 C-28.6525 11.375 -27.9925 11.375 -27.3125 11.375 C-27.3125 10.715 -27.3125 10.055 -27.3125 9.375 C-25.9925 9.045 -24.6725 8.715 -23.3125 8.375 C-23.3125 7.715 -23.3125 7.055 -23.3125 6.375 C-22.10693396 5.74467867 -20.89786811 5.1210503 -19.6875 4.5 C-18.67816406 3.97792969 -18.67816406 3.97792969 -17.6484375 3.4453125 C-11.6416821 0.69305334 -6.52676321 -0.01194572 0 0 Z " fill="#F8F8F8" transform="translate(297.3125,156.625)"/>
<path d="M0 0 C3.71888239 0.50712033 6.73454239 1.11608215 10 3 C10 3.66 10 4.32 10 5 C13.32959784 6.01268874 16.6642945 7.00762761 20 8 C21.155 8.34804688 22.31 8.69609375 23.5 9.0546875 C25.294375 9.58449219 25.294375 9.58449219 27.125 10.125 C28.24132812 10.45757812 29.35765625 10.79015625 30.5078125 11.1328125 C51.47487227 16.33939781 74.38199477 13.62949144 94.06396484 5.33764648 C95.13831787 4.88627319 95.13831787 4.88627319 96.234375 4.42578125 C97.18135254 4.01453003 97.18135254 4.01453003 98.14746094 3.5949707 C100 3 100 3 104 3 C104 2.34 104 1.68 104 1 C106.475 0.505 106.475 0.505 109 0 C114.31743473 7.20462451 119.45814397 14.47825173 124.125 22.125 C124.70979126 23.06484741 124.70979126 23.06484741 125.30639648 24.02368164 C127.32243007 27.38861499 128 28.96800852 128 33 C79.49 33 30.98 33 -19 33 C-16.75 26.25 -16.75 26.25 -15.0546875 23.3515625 C-14.70019531 22.73925781 -14.34570312 22.12695312 -13.98046875 21.49609375 C-13.61566406 20.87863281 -13.25085938 20.26117188 -12.875 19.625 C-12.50246094 18.98433594 -12.12992187 18.34367187 -11.74609375 17.68359375 C-10.83565998 16.11951523 -9.91851809 14.55934466 -9 13 C-8.34 13 -7.68 13 -7 13 C-6.773125 12.154375 -6.54625 11.30875 -6.3125 10.4375 C-4.74263602 6.32595149 -2.65700952 3.49606516 0 0 Z " fill="#FAFAFA" transform="translate(286,329)"/>
<path d="M0 0 C0.9614241 -0.00945648 1.92284821 -0.01891296 2.91340637 -0.02865601 C3.95091537 -0.02258331 4.98842438 -0.01651062 6.05737305 -0.01025391 C7.66107002 -0.01455917 7.66107002 -0.01455917 9.29716492 -0.01895142 C11.56090829 -0.02099416 13.82466923 -0.01544967 16.08837891 -0.00292969 C19.54524546 0.0130732 23.00093436 -0.00274751 26.45776367 -0.02197266 C28.65763604 -0.01998934 30.85750767 -0.01614383 33.05737305 -0.01025391 C34.08880936 -0.0163266 35.12024567 -0.02239929 36.18293762 -0.02865601 C41.71921186 0.0252679 45.55612135 0.37361588 50.2565918 3.38818359 C50.2565918 4.04818359 50.2565918 4.70818359 50.2565918 5.38818359 C50.9165918 5.38818359 51.5765918 5.38818359 52.2565918 5.38818359 C52.2565918 6.37818359 52.2565918 7.36818359 52.2565918 8.38818359 C52.9165918 8.38818359 53.5765918 8.38818359 54.2565918 8.38818359 C54.28556615 12.65900273 54.30338176 16.92979668 54.3190918 21.20068359 C54.3274707 22.415625 54.33584961 23.63056641 54.34448242 24.88232422 C54.34770508 26.04570312 54.35092773 27.20908203 54.35424805 28.40771484 C54.35948486 29.48126221 54.36472168 30.55480957 54.37011719 31.66088867 C54.2565918 34.38818359 54.2565918 34.38818359 53.2565918 37.38818359 C52.5965918 37.38818359 51.9365918 37.38818359 51.2565918 37.38818359 C51.0503418 38.11005859 50.8440918 38.83193359 50.6315918 39.57568359 C48.12705869 44.69859223 43.70087549 47.63592219 38.515625 49.77734375 C33.528304 51.12590931 28.3220051 50.81472041 23.1940918 50.76318359 C22.03586914 50.77478516 20.87764648 50.78638672 19.68432617 50.79833984 C9.2067789 50.76223112 9.2067789 50.76223112 4.2565918 47.38818359 C3.5553418 46.91380859 2.8540918 46.43943359 2.1315918 45.95068359 C-4.5118681 40.41446701 -9.56414391 33.10955577 -10.7434082 24.38818359 C-10.88476918 21.91164793 -10.96343375 19.43106932 -10.9934082 16.95068359 C-11.01918945 15.67322266 -11.0449707 14.39576172 -11.0715332 13.07958984 C-10.66167629 8.46869952 -9.3073352 5.35550279 -6.43537903 1.74276733 C-4.19526492 -0.05065729 -2.85018665 0.00804375 0 0 Z " fill="#FAFAFA" transform="translate(264.743408203125,194.61181640625)"/>
<path d="M0 0 C1.56971558 -0.00430527 1.56971558 -0.00430527 3.17114258 -0.00869751 C5.38005109 -0.01073578 7.58897775 -0.00522254 9.79785156 0.00732422 C13.17554146 0.02338065 16.55203475 0.00746687 19.9296875 -0.01171875 C22.07812764 -0.00973628 24.22656703 -0.00589252 26.375 0 C27.38344971 -0.00607269 28.39189941 -0.01214539 29.4309082 -0.0184021 C38.17350576 0.06913201 38.17350576 0.06913201 42.1875 3.3984375 C46.19602041 8.60588094 44.63018736 18.11348155 44.1875 24.3984375 C42.98194761 32.8811425 38.64720138 39.66956241 32.08984375 45.15234375 C30.1875 46.3984375 30.1875 46.3984375 28.1875 46.3984375 C28.1875 47.0584375 28.1875 47.7184375 28.1875 48.3984375 C21.73481492 50.31062635 15.83707873 50.73369031 9.125 50.7109375 C7.69317383 50.73510742 7.69317383 50.73510742 6.23242188 50.75976562 C-1.83609807 50.76533396 -7.8529959 49.20111255 -13.8125 43.3984375 C-19.20426795 35.87433195 -20.04045439 30.22249944 -20.125 21.0859375 C-20.15400391 20.05275391 -20.18300781 19.01957031 -20.21289062 17.95507812 C-20.26292524 11.95477296 -20.10271057 7.99561373 -15.8125 3.3984375 C-11.02112547 -0.56771953 -5.91541164 -0.03562149 0 0 Z " fill="#F9F9F9" transform="translate(381.8125,194.6015625)"/>
<path d="M0 0 C1.06347656 0.50080078 1.06347656 0.50080078 2.1484375 1.01171875 C4.5974389 2.31888617 6.20945365 3.88971323 8 6 C8 6.99 8 7.98 8 9 C5.75583701 10.34409762 3.50557204 11.67529896 1.25 13 C0.61578125 13.3815625 -0.0184375 13.763125 -0.671875 14.15625 C-4.13971476 16.17915652 -5.89348254 17 -10 17 C-10 16.34 -10 15.68 -10 15 C-11.27875 15.268125 -12.5575 15.53625 -13.875 15.8125 C-14.59429687 15.96332031 -15.31359375 16.11414063 -16.0546875 16.26953125 C-18.37046549 16.92308838 -18.37046549 16.92308838 -20 20 C-20.45955739 23.59986622 -20.41241898 25.35662639 -18.4375 28.4375 C-16.01776401 30.29794067 -16.01776401 30.29794067 -12.6875 30 C-9.59126994 29.16034439 -7.97386837 28.47147262 -5.375 26.8125 C-2 25 -2 25 0.5625 25.4375 C3.62707191 27.40196917 6.2711879 29.58849164 9 32 C7.91978591 37.60974819 4.41445639 41.34085686 -0.22265625 44.52734375 C-7.29569156 48.6011287 -14.39531616 50.37920903 -22.4921875 48.38671875 C-29.13338117 46.09560786 -33.02579838 42.73465698 -37 37 C-37.43441406 36.38125 -37.86882812 35.7625 -38.31640625 35.125 C-42.0902726 28.81330715 -41.87439564 21.84737776 -40.59765625 14.76953125 C-38.53856492 8.02701652 -33.57874744 2.17760652 -27.60546875 -1.45703125 C-17.71226343 -5.86612905 -9.52763685 -4.57995175 0 0 Z " fill="#070707" transform="translate(356,419)"/>
<path d="M0 0 C3.568125 -0.103125 7.13625 -0.20625 10.8125 -0.3125 C12.49436401 -0.38078003 12.49436401 -0.38078003 14.21020508 -0.45043945 C16.88279452 -0.48811579 19.36457479 -0.46016245 22 0 C24.21875 2.375 24.21875 2.375 25 5 C24.6875 7.3125 24.6875 7.3125 24 9 C26.31 9 28.62 9 31 9 C31 9.66 31 10.32 31 11 C31.99 10.34 32.98 9.68 34 9 C37.70544587 8.80149397 40.47005387 8.82335129 44 10 C45.84172925 12.80812063 46.24272984 15.00891125 46.1953125 18.328125 C46.18886719 19.12734375 46.18242187 19.9265625 46.17578125 20.75 C46.15902344 21.575 46.14226562 22.4 46.125 23.25 C46.11597656 24.09046875 46.10695313 24.9309375 46.09765625 25.796875 C46.07415817 27.86470604 46.03828908 29.93238995 46 32 C39.25 32.125 39.25 32.125 37 31 C36.01 33.31 35.02 35.62 34 38 C33.01 37.67 32.02 37.34 31 37 C31 35.35 31 33.7 31 32 C28.02934491 32.34227572 28.02934491 32.34227572 25 33 C24.67 33.66 24.34 34.32 24 35 C22.515 34.505 22.515 34.505 21 34 C21 33.67 21 33.34 21 33 C14.07 32.67 7.14 32.34 0 32 C0 21.44 0 10.88 0 0 Z " fill="#F6F6F6" transform="translate(411,570)"/>
<path d="M0 0 C1.64935547 0.03383789 1.64935547 0.03383789 3.33203125 0.06835938 C6.01449836 0.12667388 8.69398433 0.20844816 11.375 0.3125 C12.04520269 4.74947351 12.71055866 9.18716037 13.375 13.625 C13.56578125 14.88763672 13.7565625 16.15027344 13.953125 17.45117188 C14.13359375 18.65966797 14.3140625 19.86816406 14.5 21.11328125 C14.75136719 22.78644409 14.75136719 22.78644409 15.0078125 24.4934082 C15.375 27.3125 15.375 27.3125 15.375 30.3125 C0.195 30.3125 -14.985 30.3125 -30.625 30.3125 C-30.625 13.3995382 -30.625 13.3995382 -24.56542969 7.05444336 C-17.22526877 0.46510666 -9.51031039 -0.37555904 0 0 Z " fill="#F5F5F5" transform="translate(220.625,484.6875)"/>
<path d="M0 0 C3.14565046 -0.08845016 6.29097375 -0.14086835 9.4375 -0.1875 C10.31599609 -0.21263672 11.19449219 -0.23777344 12.09960938 -0.26367188 C22.11582559 -0.3745525 29.52825939 2.32276574 37 9 C43.11514259 15.42873964 42 20.95933829 42 30 C27.15 30 12.3 30 -3 30 C-1.83928571 7.94642857 -1.83928571 7.94642857 0 0 Z " fill="#F7F7F7" transform="translate(449,485)"/>
<path d="M0 0 C0.01458252 0.58265625 0.02916504 1.1653125 0.04418945 1.765625 C0.57298062 20.77968482 2.16702056 38.77569009 11 56 C11 56.99 11 57.98 11 59 C3.30249542 59.71420146 -2.26505743 59.32359645 -8.74609375 54.90234375 C-12.52931401 51.70922717 -15.31484341 48.13813257 -18 44 C-18.43441406 43.38511719 -18.86882812 42.77023438 -19.31640625 42.13671875 C-23.56113837 35.2297853 -22.83803052 26.80900593 -21.4921875 19.0859375 C-19.27115198 10.63579088 -14.45824398 5.43606455 -7 1 C-4 0 -4 0 0 0 Z " fill="#F7F7F7" transform="translate(217,202)"/>
<path d="M0 0 C7.4091618 1.70920553 14.23978675 6.13856471 18.8828125 12.171875 C22.92472394 18.78591191 22.97542055 27.52465309 22 35 C18.50413994 45.37561313 12.14459252 53.02947701 2.48828125 58.1328125 C-1.94744774 59.67870235 -6.37297854 59.38918872 -11 59 C-10.18308429 55.02636063 -8.59639798 51.36226701 -7.0625 47.625 C-2.19313657 35.73001001 -0.86715522 25.31922119 -0.4375 12.5 C-0.39431641 11.29601562 -0.35113281 10.09203125 -0.30664062 8.8515625 C-0.20126832 5.90113807 -0.09914097 2.95063929 0 0 Z " fill="#F7F7F7" transform="translate(464,202)"/>
<path d="M0 0 C3.14466655 0.37141731 4.39061103 0.89350247 6.48046875 3.29296875 C7.30805358 6.41232694 7.48522859 7.33908464 6.48046875 10.29296875 C-0.48484985 20.07149378 -8.86104587 25.65911368 -20.51953125 28.29296875 C-31.56952731 29.57977385 -41.67054924 28.06616529 -50.9296875 21.61328125 C-52.92664962 19.93359349 -54.72693305 18.18703478 -56.51953125 16.29296875 C-57.04546875 15.79796875 -57.57140625 15.30296875 -58.11328125 14.79296875 C-60.87625973 11.96859074 -61.8259893 9.8325264 -61.89453125 5.98046875 C-61.51953125 2.29296875 -61.51953125 2.29296875 -60.51953125 1.29296875 C-57.45703125 0.73046875 -57.45703125 0.73046875 -53.51953125 1.29296875 C-50.46598148 3.62834915 -47.87078202 6.25161061 -45.51953125 9.29296875 C-45.51953125 9.95296875 -45.51953125 10.61296875 -45.51953125 11.29296875 C-36.16454651 14.56040625 -25.94518777 16.44009755 -16.328125 13.2265625 C-10.7011219 10.41688885 -7.09580328 7.27919218 -3.93359375 1.83203125 C-2.51953125 0.29296875 -2.51953125 0.29296875 0 0 Z " fill="#090909" transform="translate(368.51953125,271.70703125)"/>
<path d="M0 0 C1.65 0 3.3 0 5 0 C6.47905238 2.95810476 6.12190903 5.9547155 6.09765625 9.1953125 C6.0962413 9.90275604 6.09482635 10.61019958 6.09336853 11.33908081 C6.087766 13.60109669 6.07521318 15.86301398 6.0625 18.125 C6.05748532 19.65755065 6.05292236 21.19010286 6.04882812 22.72265625 C6.03779577 26.48180888 6.02052952 30.24088772 6 34 C3.66705225 34.04241723 1.33297433 34.04092937 -1 34 C-2 33 -2 33 -2.11352539 30.95874023 C-2.10828857 30.08419189 -2.10305176 29.20964355 -2.09765625 28.30859375 C-2.09443359 27.36435547 -2.09121094 26.42011719 -2.08789062 25.44726562 C-2.07951172 24.45404297 -2.07113281 23.46082031 -2.0625 22.4375 C-2.05798828 21.44041016 -2.05347656 20.44332031 -2.04882812 19.41601562 C-2.03700007 16.94395151 -2.02051849 14.47200482 -2 12 C-2.66 12 -3.32 12 -4 12 C-3.98428955 12.59949463 -3.9685791 13.19898926 -3.95239258 13.81665039 C-3.8895587 16.56516877 -3.85085765 19.31353542 -3.8125 22.0625 C-3.78736328 23.00544922 -3.76222656 23.94839844 -3.73632812 24.91992188 C-3.67527741 30.76044053 -4.1616872 34.85684042 -7 40 C-10.62517575 43.3053073 -14.19354759 43.44606857 -18.90625 43.3046875 C-21.59742991 42.91306057 -23.12795617 41.95343704 -25 40 C-24.67 38.35 -24.34 36.7 -24 35 C-23.07767578 35.14308594 -23.07767578 35.14308594 -22.13671875 35.2890625 C-21.32847656 35.39992188 -20.52023437 35.51078125 -19.6875 35.625 C-18.88699219 35.74101563 -18.08648437 35.85703125 -17.26171875 35.9765625 C-14.71276785 36.21533407 -14.71276785 36.21533407 -12 34 C-11.67 33.01 -11.34 32.02 -11 31 C-11.99 31.66 -12.98 32.32 -14 33 C-17.29298055 33.43492196 -19.80334957 33.69293789 -22.75390625 31.984375 C-26.1512838 29.26647296 -27.71375091 27.22047508 -28.2734375 22.87890625 C-28.37780603 20.49850091 -28.39149916 18.35325039 -28 16 C-25.01520668 12.8581123 -22.46106899 11.09528711 -18.125 10.8125 C-15.10898068 10.99346116 -13.53346154 11.44094675 -11 13 C-11 12.34 -11 11.68 -11 11 C-9.02 11 -7.04 11 -5 11 C-5 9.02 -5 7.04 -5 5 C-4.01 4.67 -3.02 4.34 -2 4 C-0.79117904 1.99983534 -0.79117904 1.99983534 0 0 Z " fill="#101010" transform="translate(487,568)"/>
<path d="M0 0 C7.26 0 14.52 0 22 0 C22 2.31 22 4.62 22 7 C17.05 7 12.1 7 7 7 C7 8.98 7 10.96 7 13 C10.96 13 14.92 13 19 13 C19 15.31 19 17.62 19 20 C15.04 20 11.08 20 7 20 C7 21.65 7 23.3 7 25 C11.95 25 16.9 25 22 25 C22.33 26.32 22.66 27.64 23 29 C23.61875 28.05125 24.2375 27.1025 24.875 26.125 C27 23 27 23 29 21 C28.88816254 17.86855119 27.39871932 16.15937478 25.4375 13.875 C23 11 23 11 23 9 C25.64 9 28.28 9 31 9 C31.66 10.65 32.32 12.3 33 14 C33.66 14 34.32 14 35 14 C35.309375 13.360625 35.61875 12.72125 35.9375 12.0625 C37 10 37 10 38 9 C40.33297433 8.95907063 42.66705225 8.95758277 45 9 C45 9.99 45 10.98 45 12 C44.34 12 43.68 12 43 12 C42.71125 12.721875 42.4225 13.44375 42.125 14.1875 C41.08333333 16.79166667 40.04166667 19.39583333 39 22 C39.99 22.33 40.98 22.66 42 23 C44.07530387 25.92079805 45 27.37546731 45 31 C39.375 31.25 39.375 31.25 36 29 C36 28.01 36 27.02 36 26 C35.01 26 34.02 26 33 26 C32.34 27.65 31.68 29.3 31 31 C20.77 31 10.54 31 0 31 C0 20.77 0 10.54 0 0 Z " fill="#070707" transform="translate(96,570)"/>
<path d="M0 0 C4.2973074 2.01941137 7.28549702 4.50963506 9 9 C9.23046875 11.5078125 9.23046875 11.5078125 9.1875 14.125 C9.18105469 14.99382812 9.17460937 15.86265625 9.16796875 16.7578125 C9 19 9 19 8 21 C7.34 21 6.68 21 6 21 C5.7525 21.61875 5.505 22.2375 5.25 22.875 C3.73181278 25.45591827 2.76039534 25.9179635 0 27 C-2.5078125 27.23046875 -2.5078125 27.23046875 -5.125 27.1875 C-5.99382812 27.18105469 -6.86265625 27.17460937 -7.7578125 27.16796875 C-10 27 -10 27 -12 26 C-12 25.34 -12 24.68 -12 24 C-12.99 23.67 -13.98 23.34 -15 23 C-18.38654592 19.37270437 -18.67663173 16.42821376 -18.5625 11.61328125 C-17.56674301 6.98716022 -14.49597949 4.0293216 -11 1 C-7.49985537 -0.75007232 -3.81900066 -0.56161774 0 0 Z " fill="#0C0C0C" transform="translate(302,205)"/>
<path d="M0 0 C0.99 0.33 1.98 0.66 3 1 C3 1.66 3 2.32 3 3 C3.61875 3.226875 4.2375 3.45375 4.875 3.6875 C7.78601333 5.48547882 8.15372627 6.6854279 9 10 C9.64086254 14.06642539 9.9032958 17.46696171 7.76171875 21.1015625 C5.28653615 24.08652216 3.73501226 25.75499591 0 27 C-1.47586615 27.11687338 -2.95706612 27.17501742 -4.4375 27.1875 C-5.19933594 27.20167969 -5.96117187 27.21585938 -6.74609375 27.23046875 C-10.77915835 26.81807566 -12.63040202 25.43119764 -15.25 22.375 C-18.08752675 16.90262698 -17.60235051 12.90215949 -15.8125 7.25 C-11.8684914 0.17798458 -7.65744517 -0.87472688 0 0 Z " fill="#070707" transform="translate(387,205)"/>
<path d="M0 0 C3.33333333 0 6.66666667 0 10 0 C11.9490625 -0.12375 11.9490625 -0.12375 13.9375 -0.25 C17.09510994 -0.25580443 17.79112175 -0.15531972 20.4375 1.8125 C23.53999767 6.15599674 23.75397707 10.84490094 23 16 C21.70047278 18.98769809 20.66180871 19.83728043 18 22 C15.03945865 22.6393387 13.09495395 22.3993489 10 22 C9.01 21.34 8.02 20.68 7 20 C7 23.96 7 27.92 7 32 C4.69 32 2.38 32 0 32 C0 21.44 0 10.88 0 0 Z " fill="#090909" transform="translate(144,579)"/>
<path d="M0 0 C6.625 0.75 6.625 0.75 10 3 C17.42433286 5.12123796 23.53662081 3.9708148 30.671875 1.68359375 C33.62809553 0.81557598 35.94936879 0.49156146 39 1 C41.4375 2.6875 41.4375 2.6875 43 5 C43.25 7.5 43.25 7.5 42 10 C39.4789904 11.69818008 36.80969133 12.85918561 34 14 C33.2678125 14.3609375 32.535625 14.721875 31.78125 15.09375 C27.91197611 16.35452464 24.29547255 16.3413038 20.25 16.3125 C19.44667236 16.30758545 18.64334473 16.3026709 17.81567383 16.29760742 C10.36287683 16.15010966 4.89359916 15.19913537 -1.125 10.625 C-3 8 -3 8 -2.9375 5.375 C-2 3 -2 3 0 0 Z " fill="#0D0D0D" transform="translate(321,472)"/>
<path d="M0 0 C2.31 0 4.62 0 7 0 C7 3.63 7 7.26 7 11 C9.31 11 11.62 11 14 11 C15.90724747 15.33465333 17.49191076 19.47573227 19 24 C20.65 19.71 22.3 15.42 24 11 C26.31 11 28.62 11 31 11 C28.47191206 18.71732109 25.74972528 26.35945902 23 34 C20.69 34 18.38 34 16 34 C15.67386719 33.20335937 15.34773438 32.40671875 15.01171875 31.5859375 C14.57472656 30.52632812 14.13773437 29.46671875 13.6875 28.375 C13.25824219 27.33085938 12.82898438 26.28671875 12.38671875 25.2109375 C11.03840145 22.0889183 9.52085262 19.04170524 8 16 C7.67 21.61 7.34 27.22 7 33 C4.69 33 2.38 33 0 33 C0 22.11 0 11.22 0 0 Z " fill="#141414" transform="translate(330,568)"/>
<path d="M0 0 C7.26 0 14.52 0 22 0 C22 1.98 22 3.96 22 6 C21 7 21 7 17.83984375 7.09765625 C15.90818359 7.08025391 15.90818359 7.08025391 13.9375 7.0625 C12.64714844 7.05347656 11.35679687 7.04445313 10.02734375 7.03515625 C9.02832031 7.02355469 8.02929688 7.01195312 7 7 C7 8.65 7 10.3 7 12 C10.96 12 14.92 12 19 12 C19 14.64 19 17.28 19 20 C15.04 20 11.08 20 7 20 C7 21.65 7 23.3 7 25 C11.95 25 16.9 25 22 25 C22 26.98 22 28.96 22 31 C14.74 31 7.48 31 0 31 C0 20.77 0 10.54 0 0 Z " fill="#0E0E0E" transform="translate(411,570)"/>
<path d="M0 0 C7.59 0 15.18 0 23 0 C23 2.31 23 4.62 23 7 C17.72 7 12.44 7 7 7 C7 8.65 7 10.3 7 12 C10.96 12 14.92 12 19 12 C19 14.31 19 16.62 19 19 C15.04 19 11.08 19 7 19 C7 20.98 7 22.96 7 25 C11.95 25 16.9 25 22 25 C22 26.98 22 28.96 22 31 C14.74 31 7.48 31 0 31 C0 20.77 0 10.54 0 0 Z " fill="#0D0D0D" transform="translate(261,570)"/>
<path d="M0 0 C2.90996544 1.86185708 5.42868293 3.85736586 7 7 C7.37163382 10.22082643 7.66699869 12.82341431 6.0234375 15.72265625 C3.74532156 18.56680713 1.56196848 21.08406525 -2 22 C-7.03829462 21.92002707 -9.02815058 21.80642825 -12.9375 18.5625 C-15.85127023 14.94236123 -16.34945578 12.7328293 -16.28125 8.03515625 C-15.83009301 4.77053411 -14.38122136 3.18814936 -12 1 C-7.83215528 -1.47817794 -4.62768861 -1.21781279 0 0 Z " fill="#0F0F0F" transform="translate(194,580)"/>
<path d="M0 0 C2.875 2.4375 2.875 2.4375 5 5 C5.33 5.33 5.66 5.66 6 6 C6.54396172 10.81539887 6.72490311 14.75730895 4.25 19 C1.13011459 21.77323148 -0.71955787 22.83298581 -4.875 23.375 C-8.84487514 22.89861498 -10.89536536 21.46959574 -14 19 C-16.68773977 14.96839035 -16.67415933 11.73576122 -16 7 C-14.20622099 3.8774958 -12.79785562 2.45283697 -9.6875 0.6875 C-6.21416939 -0.20102643 -3.57362058 -0.44670257 0 0 Z " fill="#0F0F0F" transform="translate(322,579)"/>
<path d="M0 0 C4.06321581 1.56277531 7.01688254 3.03376507 9 7 C9 9.31 9 11.62 9 14 C4.05 14 -0.9 14 -6 14 C-6 14.66 -6 15.32 -6 16 C-2.37 16 1.26 16 5 16 C5.33 17.32 5.66 18.64 6 20 C5.01 20.33 4.02 20.66 3 21 C3 21.66 3 22.32 3 23 C-6.14973262 23.31016043 -6.14973262 23.31016043 -10 21 C-13.43360667 17.21119265 -13.50199232 13.27759718 -13.36328125 8.37890625 C-12.8499559 5.01745315 -11.48109559 3.26217539 -9 1 C-5.92805092 -0.53597454 -3.39755707 -0.2265038 0 0 Z " fill="#141414" transform="translate(373,579)"/>
<path d="M0 0 C0 0.66 0 1.32 0 2 C0.61875 2.28875 1.2375 2.5775 1.875 2.875 C4 4 4 4 6 6 C6.1875 9.5625 6.1875 9.5625 6 13 C4.12175109 14.87824891 0.96064724 14.39102397 -1.5625 14.5625 C-2.76003906 14.64628906 -3.95757812 14.73007812 -5.19140625 14.81640625 C-6.11824219 14.87699219 -7.04507813 14.93757812 -8 15 C-8 15.66 -8 16.32 -8 17 C-4.37 16.67 -0.74 16.34 3 16 C3 17.65 3 19.3 3 21 C-0.70982446 23.4732163 -3.69888142 23.54710902 -8 23 C-11.64355647 21.38064157 -14.12645605 19.54987274 -16 16 C-16.61117822 10.60125903 -15.68313937 6.7186244 -13 2 C-8.96672937 -0.65043498 -4.66717258 -0.15820924 0 0 Z " fill="#131313" transform="translate(232,579)"/>
<path d="M0 0 C3 2.0625 3 2.0625 5 5 C5.40020958 7.80666457 5.24217876 10.14229065 5 13 C0.38 13 -4.24 13 -9 13 C-8.67 13.66 -8.34 14.32 -8 15 C-7.37351562 14.97679687 -6.74703125 14.95359375 -6.1015625 14.9296875 C-5.28429687 14.91164063 -4.46703125 14.89359375 -3.625 14.875 C-2.81289063 14.85179687 -2.00078125 14.82859375 -1.1640625 14.8046875 C1 15 1 15 3 17 C3 17.99 3 18.98 3 20 C-2.21819426 22.21773256 -5.57174844 22.22573422 -11 21 C-14.00133884 18.61432041 -15.79483964 16.65593717 -16.2734375 12.79296875 C-16.54887682 5.72689092 -16.54887682 5.72689092 -13.6875 1.9375 C-9.16691444 -1.3215268 -5.27603825 -1.46784722 0 0 Z " fill="#080808" transform="translate(536,580)"/>
<path d="M0 0 C3.75671609 0.90451688 5.57626487 2.7564453 8.22265625 5.53515625 C9.22265625 7.53515625 9.22265625 7.53515625 9.22265625 13.53515625 C3.94265625 13.53515625 -1.33734375 13.53515625 -6.77734375 13.53515625 C-6.44734375 14.19515625 -6.11734375 14.85515625 -5.77734375 15.53515625 C-3.78589289 15.82897687 -1.79197469 16.11503626 0.2109375 16.31640625 C2.28092138 16.54149188 4.22408362 16.95223923 6.22265625 17.53515625 C6.22265625 18.85515625 6.22265625 20.17515625 6.22265625 21.53515625 C2.53389245 23.99433211 -0.49578665 24.35107562 -4.77734375 23.53515625 C-7.79942315 21.79065119 -10.19385457 19.70213461 -11.77734375 16.53515625 C-12.38277022 11.72634032 -12.70556062 7.02654681 -9.83984375 2.91015625 C-6.27070826 0.14225526 -4.41320492 -0.28733722 0 0 Z " fill="#0F0F0F" transform="translate(554.77734375,578.46484375)"/>
<path d="M0 0 C1.98 0 3.96 0 6 0 C6 0.66 6 1.32 6 2 C6.99 1.34 7.98 0.68 9 0 C12.70544587 -0.19850603 15.47005387 -0.17664871 19 1 C20.84172925 3.80812063 21.24272984 6.00891125 21.1953125 9.328125 C21.18886719 10.12734375 21.18242187 10.9265625 21.17578125 11.75 C21.15902344 12.575 21.14226562 13.4 21.125 14.25 C21.11597656 15.09046875 21.10695313 15.9309375 21.09765625 16.796875 C21.07415817 18.86470604 21.03828908 20.93238995 21 23 C18.69 23 16.38 23 14 23 C14 17.39 14 11.78 14 6 C12.02 6.33 10.04 6.66 8 7 C7.67 11.95 7.34 16.9 7 22 C4.69 22 2.38 22 0 22 C0 14.74 0 7.48 0 0 Z " fill="#0F0F0F" transform="translate(436,579)"/>
<path d="M0 0 C3 0 6 0 9 0 C10.093125 -0.061875 11.18625 -0.12375 12.3125 -0.1875 C16.43736744 0.02223902 17.96221947 0.22141576 21 3 C21.63652466 6.2419438 21.46882847 9.39979203 21.3125 12.6875 C21.28994141 13.58017578 21.26738281 14.47285156 21.24414062 15.39257812 C21.18520574 17.59674272 21.10300818 19.79752672 21 22 C19.02 22 17.04 22 15 22 C14.67 17.05 14.34 12.1 14 7 C12.35 7 10.7 7 9 7 C7.05909174 8.94090826 7.60080565 12.47293902 7.4375 15.0625 C7.35371094 16.35285156 7.26992188 17.64320313 7.18359375 18.97265625 C7.12300781 19.97167969 7.06242187 20.97070312 7 22 C4.69 22 2.38 22 0 22 C0 14.74 0 7.48 0 0 Z " fill="#070707" transform="translate(496,579)"/>
<path d="M0 0 C2.64 0 5.28 0 8 0 C8.66 1.65 9.32 3.3 10 5 C10.66 5 11.32 5 12 5 C12.309375 4.360625 12.61875 3.72125 12.9375 3.0625 C14 1 14 1 15 0 C17.33297433 -0.04092937 19.66705225 -0.04241723 22 0 C22 0.99 22 1.98 22 3 C21.34 3 20.68 3 20 3 C19.566875 4.0828125 19.566875 4.0828125 19.125 5.1875 C18.08333333 7.79166667 17.04166667 10.39583333 16 13 C16.99 13.33 17.98 13.66 19 14 C21.07530387 16.92079805 22 18.37546731 22 22 C16.375 22.25 16.375 22.25 13 20 C13 19.01 13 18.02 13 17 C12.01 17 11.02 17 10 17 C9.01 19.475 9.01 19.475 8 22 C4.7 22 1.4 22 -2 22 C-2 20.02 -2 18.04 -2 16 C-1.34 17.32 -0.68 18.64 0 20 C0.61875 19.05125 1.2375 18.1025 1.875 17.125 C4 14 4 14 6 12 C5.88816254 8.86855119 4.39871932 7.15937478 2.4375 4.875 C0 2 0 2 0 0 Z " fill="#101010" transform="translate(119,579)"/>
<path d="M0 0 C2.31 0 4.62 0 7 0 C8.32 3.3 9.64 6.6 11 10 C11.66 10 12.32 10 13 10 C13.99 6.7 14.98 3.4 16 0 C18.64 0 21.28 0 24 0 C22.59273802 7.98869935 19.19224311 15.11274347 15 22 C12.69 22 10.38 22 8 22 C6.65791246 18.89954577 5.32786246 15.79407011 4 12.6875 C3.6184375 11.80642578 3.236875 10.92535156 2.84375 10.01757812 C2.4828125 9.17001953 2.121875 8.32246094 1.75 7.44921875 C1.41484375 6.66893311 1.0796875 5.88864746 0.734375 5.0847168 C0 3 0 3 0 0 Z " fill="#131313" transform="translate(283,579)"/>
<path d="M0 0 C4.49776261 4.49776261 4.9685842 9.74825654 5 16 C2.75 19.125 2.75 19.125 0 21 C-0.66 21.99 -1.32 22.98 -2 24 C-2 23.01 -2 22.02 -2 21 C-2.99 21.33 -3.98 21.66 -5 22 C-7.1875 20.5625 -7.1875 20.5625 -9 19 C-10.98 20.32 -12.96 21.64 -15 23 C-15.66 22.01 -16.32 21.02 -17 20 C-16.34 20 -15.68 20 -15 20 C-15 19.34 -15 18.68 -15 18 C-16.98 18 -18.96 18 -21 18 C-21 17.67 -21 17.34 -21 17 C-18.69 17 -16.38 17 -14 17 C-14.02320313 16.01257813 -14.04640625 15.02515625 -14.0703125 14.0078125 C-14.09738281 12.08582031 -14.09738281 12.08582031 -14.125 10.125 C-14.14820313 8.84882812 -14.17140625 7.57265625 -14.1953125 6.2578125 C-14 3 -14 3 -12 1 C-9.4375 0.8125 -9.4375 0.8125 -7 1 C-6 2 -6 2 -5.90234375 5.37890625 C-5.90901631 6.77347077 -5.92097468 8.16801743 -5.9375 9.5625 C-5.94201172 10.27341797 -5.94652344 10.98433594 -5.95117188 11.71679688 C-5.96299136 13.47790013 -5.98092737 15.23896036 -6 17 C-4.02 17 -2.04 17 0 17 C0 11.39 0 5.78 0 0 Z " fill="#EDEDED" transform="translate(517,584)"/>
<path d="M0 0 C2.31 0 4.62 0 7 0 C7 10.89 7 21.78 7 33 C4.69 33 2.38 33 0 33 C0 22.11 0 11.22 0 0 Z " fill="#060606" transform="translate(169,568)"/>
<path d="M0 0 C2.31 0 4.62 0 7 0 C7 10.89 7 21.78 7 33 C4.69 33 2.38 33 0 33 C0 22.11 0 11.22 0 0 Z " fill="#060606" transform="translate(330,568)"/>
<path d="M0 0 C1.65 0 3.3 0 5 0 C5.8394882 2.10171867 6.67139656 4.20646625 7.5 6.3125 C7.9640625 7.48425781 8.428125 8.65601563 8.90625 9.86328125 C10 13 10 13 10 16 C8 17 8 17 5 17 C4.67 17.33 4.34 17.66 4 18 C2.29227642 18.08713831 0.58101351 18.10700007 -1.12890625 18.09765625 C-2.68061523 18.09282227 -2.68061523 18.09282227 -4.26367188 18.08789062 C-5.35228516 18.07951172 -6.44089844 18.07113281 -7.5625 18.0625 C-9.2012207 18.05573242 -9.2012207 18.05573242 -10.87304688 18.04882812 C-13.58208495 18.03699826 -16.29101599 18.02051543 -19 18 C-19 17.67 -19 17.34 -19 17 C-11.74 17 -4.48 17 3 17 C3 15.02 3 13.04 3 11 C-1.95 11 -6.9 11 -12 11 C-12 9.02 -12 7.04 -12 5 C-8.04 5 -4.08 5 0 5 C0 3.35 0 1.7 0 0 Z " fill="#D5D5D5" transform="translate(280,584)"/>
<path d="M0 0 C2.31 0 4.62 0 7 0 C7 0.66 7 1.32 7 2 C7.5775 1.67 8.155 1.34 8.75 1 C11 0 11 0 15 0 C14.8125 2.875 14.8125 2.875 14 6 C11.5 7.25 11.5 7.25 9 8 C7.64908472 10.70183055 7.66141942 13.11808206 7.4375 16.125 C7.35371094 17.22070312 7.26992187 18.31640625 7.18359375 19.4453125 C7.12300781 20.28835938 7.06242188 21.13140625 7 22 C4.69 22 2.38 22 0 22 C0 14.74 0 7.48 0 0 Z " fill="#161616" transform="translate(202,579)"/>
<path d="M0 0 C0.33 0 0.66 0 1 0 C1 7.26 1 14.52 1 22 C3.31 22 5.62 22 8 22 C7.98839844 20.92878906 7.97679687 19.85757813 7.96484375 18.75390625 C7.95546701 17.35677257 7.94636669 15.95963701 7.9375 14.5625 C7.92912109 13.85544922 7.92074219 13.14839844 7.91210938 12.41992188 C7.90346412 10.61306441 7.94779989 8.80612397 8 7 C8.33 6.67 8.66 6.34 9 6 C10.98 6 12.96 6 15 6 C15 11.28 15 16.56 15 22 C14.34 22 13.68 22 13 22 C12.01 24.31 11.02 26.62 10 29 C9.01 28.67 8.02 28.34 7 28 C7 26.35 7 24.7 7 23 C4.02934491 23.34227572 4.02934491 23.34227572 1 24 C0.67 24.66 0.34 25.32 0 26 C-0.99 25.67 -1.98 25.34 -3 25 C-3 24.67 -3 24.34 -3 24 C-9.93 23.67 -16.86 23.34 -24 23 C-24 22.67 -24 22.34 -24 22 C-16.74 22 -9.48 22 -2 22 C-2 20.02 -2 18.04 -2 16 C-1.67 16 -1.34 16 -1 16 C-0.67 10.72 -0.34 5.44 0 0 Z " fill="#FAFAFA" transform="translate(435,579)"/>
<path d="M0 0 C1.65 0 3.3 0 5 0 C5 1.98 5 3.96 5 6 C3.02 6.33 1.04 6.66 -1 7 C-1.33 11.95 -1.66 16.9 -2 22 C-4.31 22 -6.62 22 -9 22 C-9 15.07 -9 8.14 -9 1 C-7.02 1 -5.04 1 -3 1 C-3 1.66 -3 2.32 -3 3 C-2.34 3 -1.68 3 -1 3 C-0.67 2.01 -0.34 1.02 0 0 Z " fill="#090909" transform="translate(575,579)"/>
<path d="M0 0 C1.65625 1.15625 1.65625 1.15625 4.21875 4.09375 C4.72112053 6.94932986 4.51651587 9.16571891 4.21875 12.09375 C0.33012013 10.83257275 -1.67500599 9.64110833 -3.78125 6.09375 C-3.78125 5.43375 -3.78125 4.77375 -3.78125 4.09375 C-5.76125 4.75375 -7.74125 5.41375 -9.78125 6.09375 C-9.78125 8.40375 -9.78125 10.71375 -9.78125 13.09375 C-10.35875 12.76375 -10.93625 12.43375 -11.53125 12.09375 C-13.98008862 10.82299102 -13.98008862 10.82299102 -17.78125 11.09375 C-18.12463883 7.4023201 -18.05936415 5.54697305 -16.09375 2.34375 C-11.27841815 -2.34143774 -6.15245859 -3.13019823 0 0 Z " fill="#0C0C0C" transform="translate(195.78125,580.90625)"/>
<path d="M0 0 C0.66 0 1.32 0 2 0 C2.10957031 0.60328125 2.21914063 1.2065625 2.33203125 1.828125 C3.4737164 7.58296072 4.82464177 10.82464177 9 15 C9.99 15.66 10.98 16.32 12 17 C8.87709365 16.51421457 6.00419641 16.0013988 3 15 C0.0372678 15.7391254 0.0372678 15.7391254 -1.5 17.5 C-3 19 -3 19 -6 20 C-8.6875 19.5625 -8.6875 19.5625 -11 19 C-11.33 18.01 -11.66 17.02 -12 16 C-8.79663178 13.16625119 -6.21912747 12.4794463 -2 12 C-2.66 10.68 -3.32 9.36 -4 8 C-6.97 8 -9.94 8 -13 8 C-13.33 7.01 -13.66 6.02 -14 5 C-9.38 5 -4.76 5 0 5 C0 3.35 0 1.7 0 0 Z M5 17 C8 18 8 18 8 18 Z " fill="#F5F5F5" transform="translate(541,588)"/>
<path d="M0 0 C2.38564077 0.57584432 4.66682784 1.22227595 7 2 C7 3.98 7 5.96 7 8 C6.67 8 6.34 8 6 8 C6 6.35 6 4.7 6 3 C3.52733235 3.34444881 3.52733235 3.34444881 1 4 C0.67 4.66 0.34 5.32 0 6 C-0.66 6 -1.32 6 -2 6 C-2 5.34 -2 4.68 -2 4 C-3.98 4 -5.96 4 -8 4 C-8 10.93 -8 17.86 -8 25 C-5.69 25 -3.38 25 -1 25 C-1.99 25.33 -2.98 25.66 -4 26 C-4 26.66 -4 27.32 -4 28 C-4.99 28 -5.98 28 -7 28 C-7.33 28.66 -7.66 29.32 -8 30 C-9.32 29.67 -10.64 29.34 -12 29 C-11.67 28.34 -11.34 27.68 -11 27 C-11.83333333 24.83333333 -11.83333333 24.83333333 -14 24 C-14 22.68 -14 21.36 -14 20 C-15.2375 20.04125 -16.475 20.0825 -17.75 20.125 C-21.01637962 20.13658291 -23.2146947 19.8568702 -26 18 C-26 17.34 -26 16.68 -26 16 C-20.72 16 -15.44 16 -10 16 C-9.67 11.71 -9.34 7.42 -9 3 C-6.36 3 -3.72 3 -1 3 C-0.67 2.01 -0.34 1.02 0 0 Z " fill="#DADADA" transform="translate(574,576)"/>
<path d="M0 0 C2.31 0 4.62 0 7 0 C7 7.59 7 15.18 7 23 C4.69 23 2.38 23 0 23 C0 15.41 0 7.82 0 0 Z " fill="#131313" transform="translate(486,579)"/>
<path d="M0 0 C7.2972973 -0.48648649 7.2972973 -0.48648649 10.4375 1.6875 C12.12584648 4.18625279 12.66916395 6.02247554 13 9 C12.360625 9.12375 11.72125 9.2475 11.0625 9.375 C10.381875 9.58125 9.70125 9.7875 9 10 C8.67 10.66 8.34 11.32 8 12 C6.3125 14.1875 6.3125 14.1875 4 16 C0.75 15.75 0.75 15.75 -2 15 C-2.37290242 7.41765071 -2.37290242 7.41765071 -0.4375 5.25 C0.036875 4.8375 0.51125 4.425 1 4 C0.77242269 1.83700789 0.77242269 1.83700789 0 0 Z " fill="#121212" transform="translate(154,579)"/>
<path d="M0 0 C0.74362793 0.01047363 1.48725586 0.02094727 2.25341797 0.03173828 C3.46191406 0.04140625 3.46191406 0.04140625 4.69482422 0.05126953 C5.95746094 0.07640625 5.95746094 0.07640625 7.24560547 0.10205078 C8.51984375 0.11558594 8.51984375 0.11558594 9.81982422 0.12939453 C11.9202043 0.15299431 14.02043991 0.18886595 16.12060547 0.22705078 C16.12060547 2.20705078 16.12060547 4.18705078 16.12060547 6.22705078 C11.50060547 6.22705078 6.88060547 6.22705078 2.12060547 6.22705078 C2.12060547 8.20705078 2.12060547 10.18705078 2.12060547 12.22705078 C0.14060547 13.21705078 0.14060547 13.21705078 -1.87939453 14.22705078 C-3.87939453 12.22705078 -3.87939453 12.22705078 -4.14501953 9.91455078 C-4.13986328 9.02767578 -4.13470703 8.14080078 -4.12939453 7.22705078 C-4.13455078 6.34017578 -4.13970703 5.45330078 -4.14501953 4.53955078 C-3.80779579 1.6037206 -3.03555324 0.36672701 0 0 Z " fill="#020202" transform="translate(100.87939453125,570.77294921875)"/>
<path d="M0 0 C3 1 3 1 4 3 C4.3125 5.9375 4.3125 5.9375 4 9 C1.77031412 11.57271448 0.37504726 11.95311909 -3 12.375 C-6.40614032 11.94923246 -7.78774156 11.63769276 -10 9 C-10.4375 5.4375 -10.4375 5.4375 -10 2 C-6.31884463 -0.45410358 -4.34706402 -0.23287843 0 0 Z " fill="#0F0F0F" transform="translate(334,247)"/>
<path d="M0 0 C2.4375 1.125 2.4375 1.125 4 3 C4.45947423 6.1506804 4.52225401 8.07837528 2.9375 10.875 C-0.15097604 12.66830867 -2.51143969 12.42841969 -6 12 C-8.4375 10.3125 -8.4375 10.3125 -10 8 C-10.49089348 5.12476676 -10.41359492 3.70554428 -8.9375 1.1875 C-5.89729821 -0.67584949 -3.48171989 -0.36649683 0 0 Z " fill="#131313" transform="translate(353,247)"/>
<path d="M0 0 C0.99 0 1.98 0 3 0 C3 9.24 3 18.48 3 28 C2.67 28 2.34 28 2 28 C1.67 26.35 1.34 24.7 1 23 C-1.64 23 -4.28 23 -7 23 C-6.67 22.34 -6.34 21.68 -6 21 C-4.02 21.33 -2.04 21.66 0 22 C-0.61754259 20.68397477 -1.24428742 19.37226444 -1.875 18.0625 C-2.22304687 17.33160156 -2.57109375 16.60070312 -2.9296875 15.84765625 C-3.8684977 13.83667541 -3.8684977 13.83667541 -6 13 C-5.43697042 9.05879291 -4.3208055 6.2491277 -2 3 C-1.34 3 -0.68 3 0 3 C0 2.01 0 1.02 0 0 Z " fill="#EAEAEA" transform="translate(141,579)"/>
<path d="M0 0 C1.65 0 3.3 0 5 0 C6.20272819 2.40545638 6.10071472 3.94996953 6.0625 6.625 C6.05347656 7.44226563 6.04445313 8.25953125 6.03515625 9.1015625 C6.02355469 9.72804688 6.01195312 10.35453125 6 11 C3.69 11 1.38 11 -1 11 C-1 18.26 -1 25.52 -1 33 C-1.33 33 -1.66 33 -2 33 C-2 26.07 -2 19.14 -2 12 C-2.99 11.67 -3.98 11.34 -5 11 C-5 9.02 -5 7.04 -5 5 C-4.01 4.67 -3.02 4.34 -2 4 C-0.79117904 1.99983534 -0.79117904 1.99983534 0 0 Z " fill="#E3E3E3" transform="translate(487,568)"/>
<path d="M0 0 C2 1 2 1 4 3 C4.36933645 5.75372909 4.18336678 8.20365661 4 11 C-0.62 11 -5.24 11 -10 11 C-10.33 11.66 -10.66 12.32 -11 13 C-11 12.01 -11 11.02 -11 10 C-8.36 9.67 -5.72 9.34 -3 9 C-3 8.34 -3 7.68 -3 7 C-5.64 7 -8.28 7 -11 7 C-10.125 3.125 -10.125 3.125 -9 2 C-7.865625 2.020625 -6.73125 2.04125 -5.5625 2.0625 C-1.94857727 2.41164028 -1.94857727 2.41164028 0 0 Z " fill="#252525" transform="translate(537,582)"/>
<path d="M0 0 C2.475 0.495 2.475 0.495 5 1 C4.175 1.804375 3.35 2.60875 2.5 3.4375 C-0.34855384 6.83478376 -0.500116 9.52552234 -0.37109375 13.8515625 C0.03515589 16.2035341 0.83351305 17.92936855 2 20 C0.68 20.33 -0.64 20.66 -2 21 C-2 20.34 -2 19.68 -2 19 C-2.66 19 -3.32 19 -4 19 C-3.67 19.99 -3.34 20.98 -3 22 C-3.66 22 -4.32 22 -5 22 C-5.33 21.34 -5.66 20.68 -6 20 C-6.66 20.99 -7.32 21.98 -8 23 C-9.9453125 23.29296875 -9.9453125 23.29296875 -12.125 23.1875 C-13.40375 23.125625 -14.6825 23.06375 -16 23 C-16 22.67 -16 22.34 -16 22 C-14.9275 22 -13.855 22 -12.75 22 C-8.72865903 21.37463285 -8.72865903 21.37463285 -6.875 17.75 C-6.21623282 16.18041558 -5.59664475 14.59423477 -5 13 C-4.55398438 11.87078125 -4.10796875 10.7415625 -3.6484375 9.578125 C-2.40442194 6.39511312 -1.19136737 3.20302048 0 0 Z " fill="#DDDDDD" transform="translate(307,579)"/>
<path d="M0 0 C0.33 0.66 0.66 1.32 1 2 C2.15628906 1.96519531 2.15628906 1.96519531 3.3359375 1.9296875 C4.33882812 1.91164063 5.34171875 1.89359375 6.375 1.875 C7.37273438 1.85179687 8.37046875 1.82859375 9.3984375 1.8046875 C12 2 12 2 14 4 C14 4.99 14 5.98 14 7 C8.79247147 9.21319962 5.42229451 9.15557096 0 8 C-2 6.5625 -2 6.5625 -3 5 C-3 4.34 -3 3.68 -3 3 C-2.34 3 -1.68 3 -1 3 C-0.67 2.01 -0.34 1.02 0 0 Z " fill="#0D0D0D" transform="translate(525,593)"/>
<path d="M0 0 C2.45862401 -0.05383848 4.9160755 -0.09359038 7.375 -0.125 C8.42300781 -0.15013672 8.42300781 -0.15013672 9.4921875 -0.17578125 C11.32897486 -0.19344267 13.16601963 -0.10303261 15 0 C15.66 0.66 16.32 1.32 17 2 C16.34 2 15.68 2 15 2 C15.20625 2.78375 15.4125 3.5675 15.625 4.375 C15.74875 5.24125 15.8725 6.1075 16 7 C15.34 7.66 14.68 8.32 14 9 C14 8.34 14 7.68 14 7 C13.34 7 12.68 7 12 7 C12 6.34 12 5.68 12 5 C8.04 5 4.08 5 0 5 C0 3.35 0 1.7 0 0 Z " fill="#F5F5F5" transform="translate(268,577)"/>
<path d="M0 0 C4.62 0 9.24 0 14 0 C14 0.66 14 1.32 14 2 C13.34 2.66 12.68 3.32 12 4 C12.33 4.33 12.66 4.66 13 5 C13.04092937 7.33297433 13.04241723 9.66705225 13 12 C12.67 12 12.34 12 12 12 C12 10.02 12 8.04 12 6 C8.04 6 4.08 6 0 6 C0 4.02 0 2.04 0 0 Z " fill="#D0D0D0" transform="translate(103,577)"/>
<path d="M0 0 C2.19007792 2.19007792 3.23836623 4.17639592 4.625 6.9375 C5.07101562 7.81277344 5.51703125 8.68804688 5.9765625 9.58984375 C7 12 7 12 7 15 C5.02 15 3.04 15 1 15 C1.66 16.98 2.32 18.96 3 21 C2.01 21.99 1.02 22.98 0 24 C0 22.68 0 21.36 0 20 C-2.31 20 -4.62 20 -7 20 C-7 19.67 -7 19.34 -7 19 C-4.69 19 -2.38 19 0 19 C0 12.73 0 6.46 0 0 Z " fill="#D4D4D4" transform="translate(337,582)"/>
<path d="M0 0 C1.134375 0.020625 2.26875 0.04125 3.4375 0.0625 C4.4275 2.3725 5.4175 4.6825 6.4375 7.0625 C4.7875 8.3825 3.1375 9.7025 1.4375 11.0625 C-0.8102975 9.01016315 -1.5647242 8.05582739 -2.5625 5.0625 C-3.2225 5.7225 -3.8825 6.3825 -4.5625 7.0625 C-4.60504356 5.06295254 -4.60330783 3.06208364 -4.5625 1.0625 C-3.5625 0.0625 -3.5625 0.0625 0 0 Z " fill="#1B1B1B" transform="translate(340.5625,578.9375)"/>
<path d="M0 0 C3.625 0.375 3.625 0.375 7 1 C7.25 6.625 7.25 6.625 5 10 C2.5 10.375 2.5 10.375 0 10 C-2.14915785 6.77626323 -2.38286803 5.73296326 -2 2 C-1.34 1.34 -0.68 0.68 0 0 Z " fill="#E8E8E8" transform="translate(468,585)"/>
<path d="M0 0 C1.2375 0.1546875 1.2375 0.1546875 2.5 0.3125 C4.64915785 3.53623677 4.88286803 4.57953674 4.5 8.3125 C2.5 10.3125 2.5 10.3125 -0.625 10.4375 C-2.048125 10.375625 -2.048125 10.375625 -3.5 10.3125 C-4.4765625 4.2578125 -4.4765625 4.2578125 -4.5 2.3125 C-2.5 0.3125 -2.5 0.3125 0 0 Z " fill="#E4E4E4" transform="translate(189.5,584.6875)"/>
<path d="M0 0 C2.38564077 0.57584432 4.66682784 1.22227595 7 2 C7 3.98 7 5.96 7 8 C6.67 8 6.34 8 6 8 C6 6.35 6 4.7 6 3 C3.52733235 3.34444881 3.52733235 3.34444881 1 4 C0.67 4.66 0.34 5.32 0 6 C-0.66 6 -1.32 6 -2 6 C-2 5.34 -2 4.68 -2 4 C-3.98 4 -5.96 4 -8 4 C-8 8.95 -8 13.9 -8 19 C-8.33 18.34 -8.66 17.68 -9 17 C-17.415 17.495 -17.415 17.495 -26 18 C-26 17.34 -26 16.68 -26 16 C-20.72 16 -15.44 16 -10 16 C-9.67 11.71 -9.34 7.42 -9 3 C-6.36 3 -3.72 3 -1 3 C-0.67 2.01 -0.34 1.02 0 0 Z " fill="#9E9E9E" transform="translate(574,576)"/>
<path d="M0 0 C3.7652358 0.25672062 5.55839511 0.59325866 8.375 3.1875 C10.24249951 6.41971069 10.34155908 8.32823991 10 12 C8.35 12 6.7 12 5 12 C4.34 10.68 3.68 9.36 3 8 C3.66 8 4.32 8 5 8 C5 7.01 5 6.02 5 5 C2.69 4.67 0.38 4.34 -2 4 C-1.34 2.68 -0.68 1.36 0 0 Z " fill="#080808" transform="translate(554,580)"/>
<path d="M0 0 C2.5625 0.1875 2.5625 0.1875 4.5625 2.1875 C4.6875 5.8125 4.6875 5.8125 4.5625 9.1875 C-1.1875 10.3125 -1.1875 10.3125 -3.4375 9.1875 C-3.53515625 3.03515625 -3.53515625 3.03515625 -3.4375 1.1875 C-2.4375 0.1875 -2.4375 0.1875 0 0 Z " fill="#EAEAEA" transform="translate(155.4375,584.8125)"/>
<path d="M0 0 C1.2375 0.1546875 1.2375 0.1546875 2.5 0.3125 C4.5 3.3125 4.5 3.3125 4.1875 5.875 C3.5 8.3125 3.5 8.3125 2.5 10.3125 C0.125 10.5 0.125 10.5 -2.5 10.3125 C-4.64915785 7.08876323 -4.88286803 6.04546326 -4.5 2.3125 C-2.5 0.3125 -2.5 0.3125 0 0 Z " fill="#E7E7E7" transform="translate(317.5,584.6875)"/>
<path d="M0 0 C0.33 0 0.66 0 1 0 C1 2.64 1 5.28 1 8 C1.66 8.33 2.32 8.66 3 9 C2.34 9.99 1.68 10.98 1 12 C2.65 11.01 4.3 10.02 6 9 C5 12 4 15 3 18 C2.64970561 23.4295631 2.62502236 26.50002981 6 31 C4.02 30.67 2.04 30.34 0 30 C0 20.1 0 10.2 0 0 Z " fill="#EFEFEF" transform="translate(176,568)"/>
<path d="M0 0 C0.33 0 0.66 0 1 0 C1 7.26 1 14.52 1 22 C3.31 22 5.62 22 8 22 C8 22.33 8 22.66 8 23 C6.865625 23.12375 5.73125 23.2475 4.5625 23.375 C2.7990625 23.684375 2.7990625 23.684375 1 24 C0.67 24.66 0.34 25.32 0 26 C-0.99 25.67 -1.98 25.34 -3 25 C-3 24.67 -3 24.34 -3 24 C-9.93 23.67 -16.86 23.34 -24 23 C-24 22.67 -24 22.34 -24 22 C-16.74 22 -9.48 22 -2 22 C-2 20.02 -2 18.04 -2 16 C-1.67 16 -1.34 16 -1 16 C-0.67 10.72 -0.34 5.44 0 0 Z " fill="#A7A7A7" transform="translate(435,579)"/>
<path d="M0 0 C5.56818182 0.56818182 5.56818182 0.56818182 7 2 C7.1875 4.4375 7.1875 4.4375 7 7 C5 9 5 9 2.5 9.25 C0 9 0 9 -2 7 C-2.25 4.5 -2.25 4.5 -2 2 C-1.34 1.34 -0.68 0.68 0 0 Z " fill="#1B1B1B" transform="translate(386,593)"/>
<path d="M0 0 C2.5625 0.1875 2.5625 0.1875 4.5625 2.1875 C4.8125 4.6875 4.8125 4.6875 4.5625 7.1875 C3.9025 7.8475 3.2425 8.5075 2.5625 9.1875 C-0.73464793 8.85778521 -2.0601839 8.5648161 -4.4375 6.1875 C-3.71780303 0.28598485 -3.71780303 0.28598485 0 0 Z " fill="#181818" transform="translate(244.4375,592.8125)"/>
<path d="M0 0 C0.66 0 1.32 0 2 0 C2.66 3.3 3.32 6.6 4 10 C3.01 10.495 3.01 10.495 2 11 C1.154375 10.525625 0.30875 10.05125 -0.5625 9.5625 C-4.88411552 7.59812931 -8.33800245 7.72028015 -13 8 C-13.33 7.01 -13.66 6.02 -14 5 C-9.38 5 -4.76 5 0 5 C0 3.35 0 1.7 0 0 Z " fill="#E0E0E0" transform="translate(541,588)"/>
<path d="M0 0 C3.41932039 3.41932039 3.64616623 4.78458296 4.375 9.4375 C4.56835938 10.57058594 4.76171875 11.70367188 4.9609375 12.87109375 C5.00512621 16.41060964 4.41725371 17.50298918 2 20 C-0.64 19.34 -3.28 18.68 -6 18 C-6 17.67 -6 17.34 -6 17 C-4.02 17 -2.04 17 0 17 C0 11.39 0 5.78 0 0 Z " fill="#B8B8B8" transform="translate(517,584)"/>
<path d="M0 0 C0.33 0 0.66 0 1 0 C1 9.24 1 18.48 1 28 C0.67 28 0.34 28 0 28 C-0.33 26.35 -0.66 24.7 -1 23 C-3.64 23 -6.28 23 -9 23 C-8.67 22.34 -8.34 21.68 -8 21 C-6.02 21.33 -4.04 21.66 -2 22 C-2.37125 21.113125 -2.7425 20.22625 -3.125 19.3125 C-4.10784228 15.59173995 -3.76062164 14.32561865 -2 11 C-1.67 11 -1.34 11 -1 11 C-0.67 7.37 -0.34 3.74 0 0 Z " fill="#C7C7C7" transform="translate(143,579)"/>
<path d="M0 0 C7.26 0 14.52 0 22 0 C22 2.31 22 4.62 22 7 C21.67 7 21.34 7 21 7 C21 5.02 21 3.04 21 1 C18.02046641 1.14017826 15.04150696 1.28686342 12.0625 1.4375 C10.78729492 1.49647461 10.78729492 1.49647461 9.48632812 1.55664062 C8.67744141 1.59853516 7.86855469 1.64042969 7.03515625 1.68359375 C5.91185913 1.73858032 5.91185913 1.73858032 4.76586914 1.79467773 C2.97538674 1.81771063 2.97538674 1.81771063 2 3 C1.95084608 4.49919441 1.96386591 6.00043529 2 7.5 C2.08301081 15.35489805 1.5142888 23.16627946 1 31 C0.67 31 0.34 31 0 31 C0 20.77 0 10.54 0 0 Z " fill="#161616" transform="translate(96,570)"/>
<path d="M0 0 C0.78375 0.04125 1.5675 0.0825 2.375 0.125 C3.72939668 2.83379335 3.44001451 5.13433268 3.375 8.125 C0.5 8.75 0.5 8.75 -2.625 9.125 C-4.625 7.125 -4.625 7.125 -4.875 4.625 C-4.51649553 1.03995533 -3.59522993 0.17120143 0 0 Z " fill="#1A1A1A" transform="translate(489.625,567.875)"/>
<path d="M0 0 C0.33 0 0.66 0 1 0 C1 10.89 1 21.78 1 33 C0.34 32.01 -0.32 31.02 -1 30 C-3.475 32.475 -3.475 32.475 -6 35 C-6.99 34.34 -7.98 33.68 -9 33 C-8.401875 32.7525 -7.80375 32.505 -7.1875 32.25 C-4.53192646 30.7325294 -3.48539249 29.68785308 -2 27 C-1.07141449 21.01725622 -0.72062689 15.04313464 -0.4375 9 C-0.39431641 8.12988281 -0.35113281 7.25976562 -0.30664062 6.36328125 C-0.20175782 4.24231781 -0.10049925 2.12117567 0 0 Z " fill="#BEBEBE" transform="translate(329,568)"/>
<path d="M0 0 C1.0209375 0.7425 1.0209375 0.7425 2.0625 1.5 C5.63911414 3.32635616 8.02985884 3.29408453 12 3 C12.99 2.67 13.98 2.34 15 2 C14.6875 3.875 14.6875 3.875 14 6 C11 8 11 8 8 7.6875 C5 7 5 7 2 6 C1.34 7.32 0.68 8.64 0 10 C0 6.7 0 3.4 0 0 Z " fill="#D0D0D0" transform="translate(461,597)"/>
<path d="M0 0 C3.96 0 7.92 0 12 0 C11.67 1.32 11.34 2.64 11 4 C12.32 4.33 13.64 4.66 15 5 C10.05 5 5.1 5 0 5 C0 3.35 0 1.7 0 0 Z " fill="#F1F1F1" transform="translate(103,590)"/>
<path d="M0 0 C3 0.125 3 0.125 4 1.125 C4.04080783 3.12458364 4.04254356 5.12545254 4 7.125 C1.6875 7.75 1.6875 7.75 -1 8.125 C-1.99 7.465 -2.98 6.805 -4 6.125 C-4.25 3.5625 -4.25 3.5625 -4 1.125 C-3 0.125 -3 0.125 0 0 Z " fill="#090909" transform="translate(585,593.875)"/>
<path d="M0 0 C1.5625 1.1875 1.5625 1.1875 3 3 C2.68960041 6.8282616 1.2606282 10.38619915 0 14 C-3.67230705 10.92000054 -4.56802365 8.7517398 -5 4 C-4.01 4.33 -3.02 4.66 -2 5 C-1.34 3.35 -0.68 1.7 0 0 Z " fill="#EDEDED" transform="translate(296,578)"/>
<path d="M0 0 C0.66 0 1.32 0 2 0 C2.66 1.32 3.32 2.64 4 4 C4.33 3.01 4.66 2.02 5 1 C5.66 1 6.32 1 7 1 C7 7.6 7 14.2 7 21 C5.35 21 3.7 21 2 21 C2.495 20.319375 2.99 19.63875 3.5 18.9375 C5.36986505 15.27568094 5.50848176 13.06785405 5 9 C3.20573857 6.30860785 1.27765827 4.27765827 -1 2 C-0.67 1.34 -0.34 0.68 0 0 Z " fill="#E3E3E3" transform="translate(195,578)"/>
<path d="M0 0 C0.66 0.99 1.32 1.98 2 3 C1.01 4.485 1.01 4.485 0 6 C-0.24219315 8.97449608 -0.24219315 8.97449608 -0.125 12.1875 C-0.09792969 13.81751953 -0.09792969 13.81751953 -0.0703125 15.48046875 C-0.04710937 16.31191406 -0.02390625 17.14335938 0 18 C-0.61875 17.814375 -1.2375 17.62875 -1.875 17.4375 C-4.04160178 16.76313824 -4.04160178 16.76313824 -6 18 C-5.31583566 13.82423832 -3.98634991 10.11919593 -2.4375 6.1875 C-1.75494141 4.44533203 -1.75494141 4.44533203 -1.05859375 2.66796875 C-0.70925781 1.78753906 -0.35992187 0.90710938 0 0 Z " fill="#CACACA" transform="translate(361,579)"/>
<path d="M0 0 C2 3 2 3 2.3125 5.5625 C2.539375 6.366875 2.76625 7.17125 3 8 C5.47636012 9.37466625 5.47636012 9.37466625 8 10 C7.67 10.99 7.34 11.98 7 13 C2.69385411 12.52153935 0.75119451 11.34073619 -2 8 C-3 5 -3 5 -2.125 2.875 C-1 1 -1 1 0 0 Z " fill="#F3F3F3" transform="translate(579,592)"/>
<path d="M0 0 C0.66 0.33 1.32 0.66 2 1 C1.58113525 1.40839111 1.16227051 1.81678223 0.73071289 2.23754883 C-1.16391776 4.09060864 -3.05074912 5.9514192 -4.9375 7.8125 C-5.59685547 8.45509766 -6.25621094 9.09769531 -6.93554688 9.75976562 C-7.87817383 10.69272461 -7.87817383 10.69272461 -8.83984375 11.64453125 C-9.42113037 12.21534424 -10.00241699 12.78615723 -10.60131836 13.37426758 C-12.23070238 15.06044035 -12.23070238 15.06044035 -13 18 C-14.62332967 19.38576923 -16.28724465 20.72641268 -18 22 C-18.66 21.67 -19.32 21.34 -20 21 C-13.46888144 13.85931038 -6.93657658 6.75296132 0 0 Z " fill="#272727" transform="translate(260,118)"/>
<path d="M0 0 C1.65 0 3.3 0 5 0 C5.1875 2.375 5.1875 2.375 5 5 C1.91111478 7.05925681 1.29064073 7.2390374 -2.1875 7.125 C-4.0746875 7.063125 -4.0746875 7.063125 -6 7 C-4.625 5.5 -4.625 5.5 -3 4 C-2.34 4 -1.68 4 -1 4 C-0.67 2.68 -0.34 1.36 0 0 Z " fill="#080808" transform="translate(230,595)"/>
<path d="M0 0 C0.99 0.495 0.99 0.495 2 1 C2 1.66 2 2.32 2 3 C5.63 3.66 9.26 4.32 13 5 C12.67 5.66 12.34 6.32 12 7 C12.66 7.66 13.32 8.32 14 9 C6.58687259 9.37065637 6.58687259 9.37065637 3.625 7.5 C3.08875 7.005 2.5525 6.51 2 6 C1.34 6 0.68 6 0 6 C0 4.02 0 2.04 0 0 Z " fill="#F1F1F1" transform="translate(361,597)"/>
<path d="M0 0 C0.33 0.66 0.66 1.32 1 2 C3.02463255 2.65213292 3.02463255 2.65213292 5 3 C5 5.31 5 7.62 5 10 C4.01 9.67 3.02 9.34 2 9 C1.01 9 0.02 9 -1 9 C-1.33 7.02 -1.66 5.04 -2 3 C-1.34 3 -0.68 3 0 3 C0 2.01 0 1.02 0 0 Z " fill="#F5F5F5" transform="translate(356,594)"/>
<path d="M0 0 C0.33 0 0.66 0 1 0 C1 1.98 1 3.96 1 6 C0.67 5.34 0.34 4.68 0 4 C-0.99 4 -1.98 4 -3 4 C-2.79375 4.61875 -2.5875 5.2375 -2.375 5.875 C-2.25125 6.57625 -2.1275 7.2775 -2 8 C-2.66 8.66 -3.32 9.32 -4 10 C-4.33 9.67 -4.66 9.34 -5 9 C-5.33 12.63 -5.66 16.26 -6 20 C-8.31 20 -10.62 20 -13 20 C-13 19.67 -13 19.34 -13 19 C-11.02 19 -9.04 19 -7 19 C-7.03480469 18.18015625 -7.06960937 17.3603125 -7.10546875 16.515625 C-7.13253906 15.43796875 -7.15960938 14.3603125 -7.1875 13.25 C-7.22230469 12.18265625 -7.25710937 11.1153125 -7.29296875 10.015625 C-6.96637079 6.65384335 -6.4691694 5.28606246 -4 3 C-2.68 3 -1.36 3 0 3 C0 2.01 0 1.02 0 0 Z " fill="#9C9C9C" transform="translate(216,582)"/>
<path d="M0 0 C2.31 0 4.62 0 7 0 C7 1.98 7 3.96 7 6 C4.36 6 1.72 6 -1 6 C-1 3 -1 3 0 0 Z " fill="#040404" transform="translate(422,583)"/>
<path d="M0 0 C3.96 0 7.92 0 12 0 C9 4 9 4 6.73828125 4.390625 C5.93777344 4.34421875 5.13726562 4.2978125 4.3125 4.25 C3.50425781 4.21390625 2.69601562 4.1778125 1.86328125 4.140625 C1.24839844 4.09421875 0.63351562 4.0478125 0 4 C0 2.68 0 1.36 0 0 Z " fill="#F9F9F9" transform="translate(419,578)"/>
<path d="M0 0 C2.64 0 5.28 0 8 0 C7.25 4.75 7.25 4.75 5 7 C3 7 3 7 1.375 5.75 C0 4 0 4 0 0 Z " fill="#1B1B1B" transform="translate(299,579)"/>
<path d="M0 0 C0.33 0.66 0.66 1.32 1 2 C1.66 2 2.32 2 3 2 C2 4 2 4 0.0625 5.8125 C-2.11871679 7.84900767 -2.11871679 7.84900767 -2.9375 10.4375 C-4.30580857 13.7375383 -6.39702545 15.60252344 -9 18 C-9.66 17.67 -10.32 17.34 -11 17 C-10.28972656 15.94039063 -9.57945312 14.88078125 -8.84765625 13.7890625 C-7.91921005 12.40108232 -6.99082796 11.01305926 -6.0625 9.625 C-5.59392578 8.92632812 -5.12535156 8.22765625 -4.64257812 7.5078125 C-4.19462891 6.8375 -3.74667969 6.1671875 -3.28515625 5.4765625 C-2.87144775 4.85861816 -2.45773926 4.24067383 -2.03149414 3.60400391 C-0.94056583 1.97082732 -0.94056583 1.97082732 0 0 Z " fill="#DBDBDB" transform="translate(529,488)"/>
<path d="M0 0 C0 1.32 0 2.64 0 4 C-3.47325181 5.1577506 -6.36067448 5.06866652 -10 5 C-9.625 3.0625 -9.625 3.0625 -9 1 C-6.04335481 -0.4783226 -3.25770263 -0.06032783 0 0 Z " fill="#050505" transform="translate(536,580)"/>
<path d="M0 0 C4.29 0.66 8.58 1.32 13 2 C13 2.66 13 3.32 13 4 C11.5 5.1875 11.5 5.1875 9 6 C6.14855895 5.39095434 3.50695958 4.49729165 1 3 C0.67 2.01 0.34 1.02 0 0 Z " fill="#F8F8F8" transform="translate(309,600)"/>
<path d="M0 0 C0 2.31 0 4.62 0 7 C-1.65 7.66 -3.3 8.32 -5 9 C-4.79375 8.071875 -4.5875 7.14375 -4.375 6.1875 C-3.63307034 2.84826598 -3.63307034 2.84826598 -6 0 C-3.50907189 -1.24546405 -2.58919267 -0.7767578 0 0 Z " fill="#1B1B1B" transform="translate(375,275)"/>
<path d="M0 0 C0.33 0.99 0.66 1.98 1 3 C3.64 3 6.28 3 9 3 C8.01 3.33 7.02 3.66 6 4 C6 4.66 6 5.32 6 6 C5.01 6 4.02 6 3 6 C2.67 6.66 2.34 7.32 2 8 C0.68 7.67 -0.64 7.34 -2 7 C-1.67 6.34 -1.34 5.68 -1 5 C-0.64386903 3.33805547 -0.30791692 1.671549 0 0 Z " fill="#E8E8E8" transform="translate(564,598)"/>
<path d="M0 0 C2.475 0.495 2.475 0.495 5 1 C5.66 2.98 6.32 4.96 7 7 C4.35118859 7.88293714 2.74807818 8 0 8 C0 5.36 0 2.72 0 0 Z " fill="#EBEBEB" transform="translate(284,593)"/>
<path d="M0 0 C1.65 0 3.3 0 5 0 C5 1.32 5 2.64 5 4 C8.3 4 11.6 4 15 4 C15 4.33 15 4.66 15 5 C10.05 5 5.1 5 0 5 C0 3.35 0 1.7 0 0 Z " fill="#E9E9E9" transform="translate(418,590)"/>
<path d="M0 0 C2.64 0 5.28 0 8 0 C8.33 0.66 8.66 1.32 9 2 C8.01 2 7.02 2 6 2 C6.309375 2.928125 6.309375 2.928125 6.625 3.875 C6.74875 4.57625 6.8725 5.2775 7 6 C6.34 6.66 5.68 7.32 5 8 C0 2.25 0 2.25 0 0 Z " fill="#202020" transform="translate(119,579)"/>
<path d="M0 0 C0.66 0 1.32 0 2 0 C2 2.64 2 5.28 2 8 C1.34 8 0.68 8 0 8 C0 8.66 0 9.32 0 10 C2.31 10 4.62 10 7 10 C6.67 10.66 6.34 11.32 6 12 C3.69 11.67 1.38 11.34 -1 11 C-1.02688151 9.35425434 -1.04634123 7.70838587 -1.0625 6.0625 C-1.07410156 5.14597656 -1.08570313 4.22945312 -1.09765625 3.28515625 C-1 1 -1 1 0 0 Z " fill="#F2F2F2" transform="translate(338,568)"/>
<path d="M0 0 C2.5625 1.875 2.5625 1.875 5 5 C5.1465164 8.42743722 4.65867457 11.64141186 4 15 C3.34 15 2.68 15 2 15 C1.96261719 14.32453125 1.92523437 13.6490625 1.88671875 12.953125 C1.82097656 12.06109375 1.75523437 11.1690625 1.6875 10.25 C1.62949219 9.36828125 1.57148437 8.4865625 1.51171875 7.578125 C0.9358819 4.67696226 -0.07596148 3.20774393 -2 1 C-1.34 0.67 -0.68 0.34 0 0 Z " fill="#C0C0C0" transform="translate(530,515)"/>
<path d="M0 0 C0.33 0.99 0.66 1.98 1 3 C3.97 3.495 3.97 3.495 7 4 C7 4.33 7 4.66 7 5 C4.03 5.66 1.06 6.32 -2 7 C-2.33 8.98 -2.66 10.96 -3 13 C-3.33 13 -3.66 13 -4 13 C-4 11.35 -4 9.7 -4 8 C-4.99 7.67 -5.98 7.34 -7 7 C-4.66666667 4.66666667 -2.33333333 2.33333333 0 0 Z " fill="#CCCCCC" transform="translate(327,242)"/>
<path d="M0 0 C0.99 0.33 1.98 0.66 3 1 C3 1.66 3 2.32 3 3 C3.66 3.33 4.32 3.66 5 4 C-2.11389522 9.55580866 -2.11389522 9.55580866 -7 10 C-5.625 8.5 -5.625 8.5 -4 7 C-3.34 7 -2.68 7 -2 7 C-1.34 4.69 -0.68 2.38 0 0 Z " fill="#D6D6D6" transform="translate(482,601)"/>
<path d="M0 0 C0.66 0.33 1.32 0.66 2 1 C1.690625 1.598125 1.38125 2.19625 1.0625 2.8125 C-0.10209704 5.08956772 -0.10209704 5.08956772 -1 8 C-2.65 7.67 -4.3 7.34 -6 7 C-6.33 6.01 -6.66 5.02 -7 4 C-4.61426621 2.10786631 -2.92824652 0.97608217 0 0 Z " fill="#E8E8E8" transform="translate(536,600)"/>
<path d="M0 0 C0 0.99 0 1.98 0 3 C-2.97 3 -5.94 3 -9 3 C-9 2.01 -9 1.02 -9 0 C-5.93109813 -1.53445094 -3.29905734 -0.54984289 0 0 Z " fill="#D0D0D0" transform="translate(559,585)"/>
<path d="M0 0 C-0.33 1.32 -0.66 2.64 -1 4 C-2.98 4.33 -4.96 4.66 -7 5 C-7 3.35 -7 1.7 -7 0 C-4.3333581 -1.33332095 -2.83319697 -0.67102033 0 0 Z " fill="#F6F6F6" transform="translate(345,597)"/>
<path d="M0 0 C0.99 0.33 1.98 0.66 3 1 C2 4 2 4 0.1875 5.3125 C-2 6 -2 6 -4.125 5.1875 C-4.74375 4.795625 -5.3625 4.40375 -6 4 C-6.66 3.67 -7.32 3.34 -8 3 C-7.67 2.34 -7.34 1.68 -7 1 C-4.69 1.33 -2.38 1.66 0 2 C0 1.34 0 0.68 0 0 Z " fill="#F2F2F2" transform="translate(210,600)"/>
<path d="M0 0 C0.66 0 1.32 0 2 0 C2.66 3.3 3.32 6.6 4 10 C3.01 10.495 3.01 10.495 2 11 C-0.03144641 10.06553465 -2.03533587 9.06775224 -4 8 C-2.68 7.67 -1.36 7.34 0 7 C0 4.69 0 2.38 0 0 Z " fill="#C9C9C9" transform="translate(541,588)"/>
<path d="M0 0 C3.96 0 7.92 0 12 0 C12 0.66 12 1.32 12 2 C10.56359829 2.19573608 9.12580496 2.38127816 7.6875 2.5625 C6.88699219 2.66691406 6.08648438 2.77132812 5.26171875 2.87890625 C3 3 3 3 0 2 C0 1.34 0 0.68 0 0 Z " fill="#E1E1E1" transform="translate(549,593)"/>
<path d="M0 0 C1.485 0.99 1.485 0.99 3 2 C2.67 3.32 2.34 4.64 2 6 C2.99 5.67 3.98 5.34 5 5 C4.67 7.31 4.34 9.62 4 12 C2 11 2 11 0.875 8.25 C0.08026605 5.29813104 -0.17810598 3.02780163 0 0 Z " fill="#DBDBDB" transform="translate(346,581)"/>
<path d="M0 0 C0 7.26 0 14.52 0 22 C-0.33 22 -0.66 22 -1 22 C-1.04898437 20.80761719 -1.09796875 19.61523438 -1.1484375 18.38671875 C-1.22347604 16.82028932 -1.2990234 15.25388421 -1.375 13.6875 C-1.42140625 12.50897461 -1.42140625 12.50897461 -1.46875 11.30664062 C-1.52675781 10.1706543 -1.52675781 10.1706543 -1.5859375 9.01171875 C-1.6173584 8.31522217 -1.6487793 7.61872559 -1.68115234 6.90112305 C-1.92118253 4.67467261 -1.92118253 4.67467261 -4 2 C-1 0 -1 0 0 0 Z " fill="#EFEFEF" transform="translate(261,570)"/>
<path d="M0 0 C1.98 0.66 3.96 1.32 6 2 C5.01 2.495 5.01 2.495 4 3 C4 3.66 4 4.32 4 5 C2.68 5 1.36 5 0 5 C0.33 5.99 0.66 6.98 1 8 C0.34 8 -0.32 8 -1 8 C-1.625 5.6875 -1.625 5.6875 -2 3 C-1.34 2.01 -0.68 1.02 0 0 Z " fill="#ECECEC" transform="translate(218,599)"/>
<path d="M0 0 C2.475 0.495 2.475 0.495 5 1 C5.33 2.65 5.66 4.3 6 6 C3.03 5.505 3.03 5.505 0 5 C0 3.35 0 1.7 0 0 Z " fill="#060606" transform="translate(320,581)"/>
<path d="M0 0 C3.35291118 -0.37254569 4.6038423 -0.31050198 7.3125 1.8125 C9 4 9 4 9 7 C5.56072421 5.7580393 2.74792181 4.44259716 0 2 C0 1.34 0 0.68 0 0 Z " fill="#292929" transform="translate(359,248)"/>
<path d="M0 0 C4.455 0.99 4.455 0.99 9 2 C9 2.33 9 2.66 9 3 C6.69 3.66 4.38 4.32 2 5 C1.67 7.31 1.34 9.62 1 12 C0.67 12 0.34 12 0 12 C0 8.04 0 4.08 0 0 Z " fill="#B0B0B0" transform="translate(151,599)"/>
<path d="M0 0 C1.65 0 3.3 0 5 0 C5.66 1.32 6.32 2.64 7 4 C4.36 4 1.72 4 -1 4 C-0.67 2.68 -0.34 1.36 0 0 Z " fill="#DEDEDE" transform="translate(528,584)"/>
<path d="M0 0 C0.33 0.99 0.66 1.98 1 3 C-1.64 3 -4.28 3 -7 3 C-7 2.01 -7 1.02 -7 0 C-4.3333581 -1.33332095 -2.83319697 -0.67102033 0 0 Z " fill="#DADADA" transform="translate(231,585)"/>
<path d="M0 0 C2.375 0.3125 2.375 0.3125 5 1 C5.66 1.99 6.32 2.98 7 4 C4.03 4 1.06 4 -2 4 C-1.34 2.68 -0.68 1.36 0 0 Z " fill="#E5E5E5" transform="translate(369,584)"/>
<path d="M0 0 C0.66 0.33 1.32 0.66 2 1 C-1.63 4.63 -5.26 8.26 -9 12 C-9 8.47967572 -8.29648649 7.5614657 -6 5 C-5.34 5 -4.68 5 -4 5 C-3.67 4.01 -3.34 3.02 -3 2 C-2.01 1.34 -1.02 0.68 0 0 Z " fill="#3A3A3A" transform="translate(156,422)"/>
<path d="M0 0 C0.66 0.33 1.32 0.66 2 1 C-1.63 4.63 -5.26 8.26 -9 12 C-9 8.00102358 -7.64683965 6.93298448 -5 4 C-3.36643049 2.62631655 -1.7074998 1.28062485 0 0 Z " fill="#B7B7B7" transform="translate(208,204)"/>
<path d="M0 0 C0.66 0.33 1.32 0.66 2 1 C2 1.66 2 2.32 2 3 C3.65 3.33 5.3 3.66 7 4 C4.52620632 6.47379368 2.3071065 6.96652922 -1 8 C-1.99 8.495 -1.99 8.495 -3 9 C-2.690625 8.443125 -2.38125 7.88625 -2.0625 7.3125 C-0.94238179 4.87459567 -0.43962636 2.63775814 0 0 Z " fill="#DFDFDF" transform="translate(521,597)"/>
<path d="M0 0 C1.23556641 0.01740234 1.23556641 0.01740234 2.49609375 0.03515625 C3.32238281 0.04417969 4.14867187 0.05320313 5 0.0625 C5.63808594 0.07410156 6.27617187 0.08570313 6.93359375 0.09765625 C6.93359375 0.42765625 6.93359375 0.75765625 6.93359375 1.09765625 C5.17015625 1.12859375 5.17015625 1.12859375 3.37109375 1.16015625 C-2.03545458 1.77694608 -4.71427515 5.08557434 -8.06640625 9.09765625 C-8.06640625 6.09765625 -8.06640625 6.09765625 -5.62890625 3.47265625 C-4.78328125 2.68890625 -3.93765625 1.90515625 -3.06640625 1.09765625 C-2.06640625 0.09765625 -2.06640625 0.09765625 0 0 Z " fill="#4E4E4E" transform="translate(380.06640625,204.90234375)"/>
<path d="M0 0 C0.66 0.33 1.32 0.66 2 1 C-1.3 4.3 -4.6 7.6 -8 11 C-8.33 10.34 -8.66 9.68 -9 9 C-8.34 8.01 -7.68 7.02 -7 6 C-6.34 6 -5.68 6 -5 6 C-4.67 5.01 -4.34 4.02 -4 3 C-3.34 3 -2.68 3 -2 3 C-2 2.34 -2 1.68 -2 1 C-1.34 0.67 -0.68 0.34 0 0 Z " fill="#D8D8D8" transform="translate(272,165)"/>
<path d="M0 0 C3 2 3 2 3.51171875 3.9453125 C3.67447917 5.96354167 3.83723958 7.98177083 4 10 C3.01 10 2.02 10 1 10 C0.67 6.7 0.34 3.4 0 0 Z " fill="#F3F3F3" transform="translate(458,594)"/>
<path d="M0 0 C2.97903734 2.97903734 4 5.80285329 4 10 C3.34 10 2.68 10 2 10 C1.67 10.66 1.34 11.32 1 12 C0.67 8.04 0.34 4.08 0 0 Z " fill="#F3F3F3" transform="translate(337,582)"/>
<path d="M0 0 C1.98 0 3.96 0 6 0 C5.67 0.99 5.34 1.98 5 3 C4.01 3.33 3.02 3.66 2 4 C1.67 4.66 1.34 5.32 1 6 C1 5.01 1 4.02 1 3 C0.34 3 -0.32 3 -1 3 C-0.67 2.01 -0.34 1.02 0 0 Z " fill="#CDCDCD" transform="translate(444,585)"/>
<path d="M0 0 C2.38564077 0.57584432 4.66682784 1.22227595 7 2 C7 3.98 7 5.96 7 8 C6.67 8 6.34 8 6 8 C6 6.35 6 4.7 6 3 C3.69 3.66 1.38 4.32 -1 5 C-0.67 3.35 -0.34 1.7 0 0 Z " fill="#CCCCCC" transform="translate(574,576)"/>
<path d="M0 0 C-0.33 0.99 -0.66 1.98 -1 3 C-1.66 3 -2.32 3 -3 3 C-3.33 3.99 -3.66 4.98 -4 6 C-5.35432675 4.68799596 -6.68733482 3.35368596 -8 2 C-8 1.67 -8 1.34 -8 1 C-5.23735711 0.40267181 -2.83967231 0 0 0 Z " fill="#E5E5E5" transform="translate(239,577)"/>
<path d="M0 0 C1.2065625 0.0309375 1.2065625 0.0309375 2.4375 0.0625 C3.5625 4.8125 3.5625 4.8125 2.4375 7.0625 C1.7775 7.0625 1.1175 7.0625 0.4375 7.0625 C0.14875 6.44375 -0.14 5.825 -0.4375 5.1875 C-1.49970042 2.92924235 -1.49970042 2.92924235 -3.5625 1.0625 C-2.5625 0.0625 -2.5625 0.0625 0 0 Z " fill="#F0F0F0" transform="translate(128.5625,576.9375)"/>
<path d="M0 0 C1.65 0 3.3 0 5 0 C4.67 0.99 4.34 1.98 4 3 C3.67 3 3.34 3 3 3 C2.67 6.3 2.34 9.6 2 13 C1.67 13 1.34 13 1 13 C0.67 8.71 0.34 4.42 0 0 Z " fill="#050505" transform="translate(436,579)"/>
<path d="M0 0 C0.99 0.33 1.98 0.66 3 1 C3.33 1.99 3.66 2.98 4 4 C2.35 5.32 0.7 6.64 -1 8 C-1.93065133 5.39417629 -2.14917407 4.35801776 -1.0625 1.75 C-0.711875 1.1725 -0.36125 0.595 0 0 Z " fill="#E0E0E0" transform="translate(521,577)"/>
<path d="M0 0 C0.33 0 0.66 0 1 0 C1 4.29 1 8.58 1 13 C0.01 12.67 -0.98 12.34 -2 12 C-2 10.35 -2 8.7 -2 7 C-1.67 7 -1.34 7 -1 7 C-0.67 4.69 -0.34 2.38 0 0 Z " fill="#0C0C0C" transform="translate(508,220)"/>
<path d="M0 0 C1.66666667 1.66666667 3.33333333 3.33333333 5 5 C5.99 5.66 6.98 6.32 8 7 C2.46153846 6.38461538 2.46153846 6.38461538 0.125 4.4375 C-0.24625 3.963125 -0.6175 3.48875 -1 3 C-0.67 2.01 -0.34 1.02 0 0 Z M1 7 C4 8 4 8 4 8 Z " fill="#E9E9E9" transform="translate(545,598)"/>
<path d="M0 0 C0.99 0.495 0.99 0.495 2 1 C2 1.66 2 2.32 2 3 C3.65 3.33 5.3 3.66 7 4 C7 4.66 7 5.32 7 6 C4.69 6 2.38 6 0 6 C0 4.02 0 2.04 0 0 Z " fill="#DDDDDD" transform="translate(361,597)"/>
<path d="M0 0 C0.33 0 0.66 0 1 0 C1.45572917 1.98567708 1.91145833 3.97135417 2.3671875 5.95703125 C2.98007723 8.27742974 2.98007723 8.27742974 5 11 C2.03 10.505 2.03 10.505 -1 10 C-0.67 6.7 -0.34 3.4 0 0 Z " fill="#CDCDCD" transform="translate(177,588)"/>
<path d="M0 0 C0 0.66 0 1.32 0 2 C1.32 2.33 2.64 2.66 4 3 C-1.94 3.495 -1.94 3.495 -8 4 C-4 0 -4 0 0 0 Z " fill="#EDEDED" transform="translate(551,576)"/>
<path d="M0 0 C1.42944945 2.35438733 2.08661261 3.48032433 1.625 6.25 C1.41875 6.8275 1.2125 7.405 1 8 C-0.32 8 -1.64 8 -3 8 C-1.125 2.25 -1.125 2.25 0 0 Z " fill="#D5D5D5" transform="translate(533,480)"/>
<path d="M0 0 C0.268125 0.556875 0.53625 1.11375 0.8125 1.6875 C2.00329541 4.09821537 2.00329541 4.09821537 3.6875 6.625 C4.120625 7.40875 4.55375 8.1925 5 9 C4.67 9.66 4.34 10.32 4 11 C2 9.4375 2 9.4375 0 7 C-0.25 3.25 -0.25 3.25 0 0 Z " fill="#CDCDCD" transform="translate(146,476)"/>
<path d="M0 0 C0.99 0 1.98 0 3 0 C3 1.65 3 3.3 3 5 C1.35 5.66 -0.3 6.32 -2 7 C-2 6.01 -2 5.02 -2 4 C-1.34 3.67 -0.68 3.34 0 3 C0 2.01 0 1.02 0 0 Z " fill="#232323" transform="translate(232,595)"/>
<path d="M0 0 C1.7074998 1.28062485 3.37373596 2.61767557 5 4 C5 4.66 5 5.32 5 6 C4.01 6 3.02 6 2 6 C1.34 7.32 0.68 8.64 0 10 C0 6.7 0 3.4 0 0 Z " fill="#B1B1B1" transform="translate(461,597)"/>
<path d="M0 0 C1.20628008 2.33214148 2.1654738 4.49642139 3 7 C3.66 7.33 4.32 7.66 5 8 C0.125 7.125 0.125 7.125 -1 6 C-1.125 3.5 -1.125 3.5 -1 1 C-0.67 0.67 -0.34 0.34 0 0 Z " fill="#292929" transform="translate(582,594)"/>
<path d="M0 0 C0.66 0.33 1.32 0.66 2 1 C2.99 0.67 3.98 0.34 5 0 C5.33 0.99 5.66 1.98 6 3 C4.35 3.66 2.7 4.32 1 5 C0.34 3.68 -0.32 2.36 -1 1 C-0.67 0.67 -0.34 0.34 0 0 Z " fill="#F5F5F5" transform="translate(314,589)"/>
<path d="M0 0 C0 0.66 0 1.32 0 2 C-1.98 2.33 -3.96 2.66 -6 3 C-6.33 3.99 -6.66 4.98 -7 6 C-6.625 3.0625 -6.625 3.0625 -6 0 C-3.50907189 -1.24546405 -2.58919267 -0.7767578 0 0 Z " fill="#D3D3D3" transform="translate(580,586)"/>
<path d="M0 0 C1.98 0.495 1.98 0.495 4 1 C3.34 1 2.68 1 2 1 C2.20625 1.78375 2.4125 2.5675 2.625 3.375 C2.810625 4.674375 2.810625 4.674375 3 6 C2.34 6.66 1.68 7.32 1 8 C1 7.34 1 6.68 1 6 C0.34 6 -0.32 6 -1 6 C-0.67 4.02 -0.34 2.04 0 0 Z " fill="#EDEDED" transform="translate(281,578)"/>
<path d="M0 0 C1.65 0.33 3.3 0.66 5 1 C3.38405168 3.04119788 1.7143618 5.04072937 0 7 C-0.66 7 -1.32 7 -2 7 C-1.34 4.69 -0.68 2.38 0 0 Z " fill="#E1E1E1" transform="translate(307,579)"/>
<path d="M0 0 C4.875 4.75 4.875 4.75 6 7 C3.69 6.34 1.38 5.68 -1 5 C-0.67 3.35 -0.34 1.7 0 0 Z " fill="#CECECE" transform="translate(162,504)"/>
<path d="M0 0 C2.475 0.99 2.475 0.99 5 2 C4.67 3.32 4.34 4.64 4 6 C3.34 6 2.68 6 2 6 C0 3 0 3 0 0 Z " fill="#131313" transform="translate(512,580)"/>
<path d="M0 0 C0.33 0.66 0.66 1.32 1 2 C1.66 2 2.32 2 3 2 C1.29058339 5.41883322 -1.58116678 8.29058339 -5 10 C-3.66511872 6.40608886 -2.03977277 3.24509304 0 0 Z " fill="#CECECE" transform="translate(529,488)"/>
<path d="M0 0 C2.97 0 5.94 0 9 0 C9.33 1.32 9.66 2.64 10 4 C8.68 3.67 7.36 3.34 6 3 C6.33 2.67 6.66 2.34 7 2 C4.69 1.67 2.38 1.34 0 1 C0 0.67 0 0.34 0 0 Z " fill="#E9E9E9" transform="translate(467,611)"/>
<path d="M0 0 C4.455 0.99 4.455 0.99 9 2 C5 4 5 4 2.25 3.125 C1.5075 2.75375 0.765 2.3825 0 2 C0 1.34 0 0.68 0 0 Z " fill="#EBEBEB" transform="translate(309,600)"/>
<path d="M0 0 C0.66 0.99 1.32 1.98 2 3 C0.68 5.64 -0.64 8.28 -2 11 C-3.28485596 5.86057616 -2.22194431 4.62164416 0 0 Z " fill="#DDDDDD" transform="translate(361,579)"/>
<path d="M0 0 C0.99 0.33 1.98 0.66 3 1 C3 1.99 3 2.98 3 4 C1.125 4.625 1.125 4.625 -1 5 C-1.66 4.34 -2.32 3.68 -3 3 C-2.34 3 -1.68 3 -1 3 C-0.67 2.01 -0.34 1.02 0 0 Z " fill="#252525" transform="translate(361,424)"/>
<path d="M0 0 C0.78375 0.04125 1.5675 0.0825 2.375 0.125 C-0.58783313 2.51172669 -3.56770509 4.8603371 -6.625 7.125 C-4.07142857 0.19387755 -4.07142857 0.19387755 0 0 Z " fill="#454545" transform="translate(368.625,271.875)"/>
<path d="M0 0 C2.86724686 0.57344937 3.8614515 0.8614515 6 3 C6 3.66 6 4.32 6 5 C5.01 5.33 4.02 5.66 3 6 C1 3 1 3 0 0 Z " fill="#EFEFEF" transform="translate(460,608)"/>
<path d="M0 0 C0.33 0 0.66 0 1 0 C1 2.31 1 4.62 1 7 C-0.65 7 -2.3 7 -4 7 C-2.68 4.69 -1.36 2.38 0 0 Z " fill="#EAEAEA" transform="translate(201,592)"/>
<path d="M0 0 C1.2065625 0.0309375 1.2065625 0.0309375 2.4375 0.0625 C1.4475 0.7225 0.4575 1.3825 -0.5625 2.0625 C-1.75482613 4.11253955 -1.75482613 4.11253955 -2.5625 6.0625 C-3.2225 5.7325 -3.8825 5.4025 -4.5625 5.0625 C-3.43829114 0.08386076 -3.43829114 0.08386076 0 0 Z " fill="#D0D0D0" transform="translate(317.5625,584.9375)"/>
<path d="M0 0 C0.66 0 1.32 0 2 0 C2 2.64 2 5.28 2 8 C1.01 7.34 0.02 6.68 -1 6 C-0.67 4.02 -0.34 2.04 0 0 Z " fill="#C8C8C8" transform="translate(304,586)"/>
<path d="M0 0 C1.32 0.99 2.64 1.98 4 3 C3.67 4.32 3.34 5.64 3 7 C2.67 6.34 2.34 5.68 2 5 C1.01 4.67 0.02 4.34 -1 4 C-0.67 2.68 -0.34 1.36 0 0 Z " fill="#030303" transform="translate(300,582)"/>
<path d="M0 0 C-1.8125 1.5625 -1.8125 1.5625 -4 3 C-7 2 -7 2 -9 0 C-5.62182575 -0.84454356 -3.32534757 -1.10844919 0 0 Z " fill="#E6E6E6" transform="translate(348,468)"/>
</svg>
